<svg width="22" height="21" viewBox="0 0 22 21" fill="none" xmlns="http://www.w3.org/2000/svg">
<path d="M21.1456 1.14492C20.7856 0.839645 20.2202 0.795965 19.6355 1.03068H19.6346C19.0197 1.2774 2.22928 8.47932 1.54576 8.77356C1.42144 8.81676 0.335681 9.22188 0.447521 10.1243C0.547361 10.9379 1.42 11.2748 1.52656 11.3137L5.7952 12.7753C6.0784 13.718 7.1224 17.1961 7.35328 17.9392C7.49728 18.4024 7.732 19.011 8.14336 19.1363C8.50432 19.2755 8.86336 19.1483 9.09568 18.9659L11.7054 16.5452L15.9184 19.8308L16.0187 19.8908C16.3048 20.0176 16.5789 20.0809 16.8405 20.0809C17.0426 20.0809 17.2365 20.043 17.4218 19.9672C18.053 19.708 18.3054 19.1065 18.3318 19.0384L21.4787 2.6814C21.6707 1.8078 21.4038 1.36332 21.1456 1.14492ZM9.55984 13.36L8.11984 17.2L6.67984 12.4L17.7198 4.23996L9.55984 13.36Z" fill="#777E91"/>
</svg>
