<svg width="22" height="22" viewBox="0 0 22 22" fill="none" xmlns="http://www.w3.org/2000/svg">
    <path d="M16.5996 0.600098C15.3172 0.600098 14.1131 1.09995 13.2059 2.00635L11.6059 3.60635C10.6995 4.51355 10.1996 5.7177 10.1996 7.0001C10.1996 8.01151 10.5143 8.97128 11.0902 9.77822L9.77773 11.0907C8.9707 10.5151 8.01041 10.2001 6.99961 10.2001C5.71721 10.2001 4.51306 10.6999 3.60586 11.6063L2.00586 13.2063C1.09946 14.1135 0.599609 15.3177 0.599609 16.6001C0.599609 17.8825 1.09946 19.0866 2.00586 19.9938C2.91226 20.901 4.11721 21.4001 5.39961 21.4001C6.68201 21.4001 7.88616 20.9002 8.79336 19.9938L10.3934 18.3938C11.2998 17.4866 11.7996 16.2825 11.7996 15.0001C11.7996 14.5593 11.7366 14.1293 11.623 13.7157L10.184 15.1548C10.1472 15.922 9.84611 16.6778 9.26211 17.2626L7.66211 18.8626C6.41411 20.1106 4.38431 20.1106 3.13711 18.8626C1.88991 17.6146 1.88911 15.5848 3.13711 14.3376L4.73711 12.7376C5.36111 12.1136 6.18117 11.8032 7.00117 11.8032C7.56258 11.8032 8.11852 11.9594 8.6168 12.2517L6.43398 14.4345C6.35721 14.5082 6.29591 14.5965 6.25368 14.6942C6.21145 14.7919 6.18914 14.897 6.18806 15.0035C6.18698 15.1099 6.20714 15.2155 6.24737 15.314C6.2876 15.4126 6.34709 15.5021 6.42236 15.5774C6.49762 15.6526 6.58714 15.7121 6.68568 15.7523C6.78423 15.7926 6.88981 15.8127 6.99624 15.8117C7.10267 15.8106 7.20782 15.7883 7.30552 15.746C7.40322 15.7038 7.49152 15.6425 7.56524 15.5657L15.5652 7.56572C15.6808 7.45335 15.7598 7.30868 15.7918 7.15066C15.8237 6.99265 15.8072 6.82866 15.7444 6.68019C15.6816 6.53172 15.5753 6.4057 15.4396 6.31864C15.304 6.23157 15.1451 6.18753 14.984 6.19229C14.7761 6.19848 14.5789 6.28534 14.434 6.43447L12.2512 8.61729C11.5302 7.39079 11.6854 5.78867 12.7371 4.7376L14.3371 3.1376C14.9611 2.5136 15.7796 2.20322 16.5996 2.20322C17.4196 2.20322 18.2381 2.5144 18.8621 3.1376C20.1101 4.3856 20.1101 6.4154 18.8621 7.6626L17.2621 9.2626C16.6781 9.8466 15.9215 10.1477 15.1543 10.1845L13.7152 11.6235C14.1288 11.7371 14.5588 11.8001 14.9996 11.8001C16.282 11.8001 17.4862 11.3002 18.3934 10.3938L19.9934 8.79385C20.8998 7.88665 21.3996 6.6825 21.3996 5.4001C21.3996 4.1177 20.8998 2.91355 19.9934 2.00635C19.0862 1.09995 17.882 0.600098 16.5996 0.600098Z"
          fill="#777E90"/>
</svg>
