<svg width="24" height="24" viewBox="0 0 24 24" fill="none" xmlns="http://www.w3.org/2000/svg">
<path d="M2.40039 4V7.2H5.60039V4H2.40039ZM9.60039 4.8C9.49438 4.7985 9.38913 4.81809 9.29076 4.85762C9.19238 4.89715 9.10284 4.95584 9.02735 5.03027C8.95185 5.10471 8.8919 5.19341 8.85099 5.29121C8.81007 5.38902 8.789 5.49398 8.789 5.6C8.789 5.70602 8.81007 5.81098 8.85099 5.90879C8.8919 6.00659 8.95185 6.09529 9.02735 6.16973C9.10284 6.24416 9.19238 6.30285 9.29076 6.34238C9.38913 6.38191 9.49438 6.4015 9.60039 6.4H20.8004C20.9064 6.4015 21.0117 6.38191 21.11 6.34238C21.2084 6.30285 21.2979 6.24416 21.3734 6.16973C21.4489 6.09529 21.5089 6.00659 21.5498 5.90879C21.5907 5.81098 21.6118 5.70602 21.6118 5.6C21.6118 5.49398 21.5907 5.38902 21.5498 5.29121C21.5089 5.19341 21.4489 5.10471 21.3734 5.03027C21.2979 4.95584 21.2084 4.89715 21.11 4.85762C21.0117 4.81809 20.9064 4.7985 20.8004 4.8H9.60039ZM2.40039 10.4V13.6H5.60039V10.4H2.40039ZM9.60039 11.2C9.49438 11.1985 9.38913 11.2181 9.29076 11.2576C9.19238 11.2971 9.10284 11.3558 9.02735 11.4303C8.95185 11.5047 8.8919 11.5934 8.85099 11.6912C8.81007 11.789 8.789 11.894 8.789 12C8.789 12.106 8.81007 12.211 8.85099 12.3088C8.8919 12.4066 8.95185 12.4953 9.02735 12.5697C9.10284 12.6442 9.19238 12.7029 9.29076 12.7424C9.38913 12.7819 9.49438 12.8015 9.60039 12.8H20.8004C20.9064 12.8015 21.0117 12.7819 21.11 12.7424C21.2084 12.7029 21.2979 12.6442 21.3734 12.5697C21.4489 12.4953 21.5089 12.4066 21.5498 12.3088C21.5907 12.211 21.6118 12.106 21.6118 12C21.6118 11.894 21.5907 11.789 21.5498 11.6912C21.5089 11.5934 21.4489 11.5047 21.3734 11.4303C21.2979 11.3558 21.2084 11.2971 21.11 11.2576C21.0117 11.2181 20.9064 11.1985 20.8004 11.2H9.60039ZM2.40039 16.8V20H5.60039V16.8H2.40039ZM9.60039 17.6C9.49438 17.5985 9.38913 17.6181 9.29076 17.6576C9.19238 17.6971 9.10284 17.7558 9.02735 17.8303C8.95185 17.9047 8.8919 17.9934 8.85099 18.0912C8.81007 18.189 8.789 18.294 8.789 18.4C8.789 18.506 8.81007 18.611 8.85099 18.7088C8.8919 18.8066 8.95185 18.8953 9.02735 18.9697C9.10284 19.0442 9.19238 19.1029 9.29076 19.1424C9.38913 19.1819 9.49438 19.2015 9.60039 19.2H20.8004C20.9064 19.2015 21.0117 19.1819 21.11 19.1424C21.2084 19.1029 21.2979 19.0442 21.3734 18.9697C21.4489 18.8953 21.5089 18.8066 21.5498 18.7088C21.5907 18.611 21.6118 18.506 21.6118 18.4C21.6118 18.294 21.5907 18.189 21.5498 18.0912C21.5089 17.9934 21.4489 17.9047 21.3734 17.8303C21.2979 17.7558 21.2084 17.6971 21.11 17.6576C21.0117 17.6181 20.9064 17.5985 20.8004 17.6H9.60039Z" fill="#2B344B"/>
</svg>
