<svg width="27" height="27" viewBox="0 0 27 27" fill="none" xmlns="http://www.w3.org/2000/svg">
<path d="M14.046 0.122534C13.7689 0.130791 13.5059 0.246609 13.3127 0.445451L6.91269 6.84545C6.81032 6.94374 6.72859 7.06147 6.67229 7.19174C6.61599 7.32201 6.58624 7.4622 6.5848 7.60411C6.58335 7.74602 6.61024 7.88679 6.66388 8.01818C6.71753 8.14957 6.79684 8.26894 6.89719 8.36929C6.99754 8.46964 7.11691 8.54895 7.2483 8.6026C7.37969 8.65624 7.52046 8.68312 7.66237 8.68168C7.80428 8.68024 7.94447 8.65049 8.07474 8.59419C8.20501 8.53789 8.32274 8.45616 8.42103 8.35378L14.821 1.95378C14.9752 1.80396 15.0804 1.61106 15.1231 1.40037C15.1657 1.18968 15.1437 0.971035 15.0599 0.773077C14.9761 0.575119 14.8345 0.407088 14.6536 0.291004C14.4727 0.174919 14.2609 0.116198 14.046 0.122534ZM16.2002 3.33295C16.0586 3.33297 15.9185 3.36116 15.7879 3.41588C15.6574 3.47061 15.539 3.55077 15.4398 3.6517L10.1502 8.94545C10.0403 9.04515 9.95239 9.16668 9.89213 9.30228C9.83186 9.43788 9.80055 9.58456 9.80019 9.73295C9.80003 9.88849 9.83389 10.0422 9.89939 10.1833C9.96488 10.3243 10.0604 10.4494 10.1794 10.5496L16.5044 16.8788C16.6037 16.9803 16.7223 17.061 16.8532 17.1161C16.9842 17.1712 17.1248 17.1996 17.2669 17.1996C17.4074 17.1996 17.5466 17.1718 17.6764 17.1178C17.8062 17.0638 17.924 16.9847 18.0231 16.885L23.3439 11.5642C23.4461 11.4648 23.5274 11.3459 23.5828 11.2146C23.6383 11.0833 23.6669 10.9422 23.6669 10.7996C23.6668 10.6581 23.6387 10.5179 23.5839 10.3874C23.5292 10.2568 23.449 10.1385 23.3481 10.0392L16.9648 3.65587C16.9606 3.65167 16.9565 3.6475 16.9523 3.64337C16.7524 3.44459 16.4821 3.33299 16.2002 3.33295ZM25.7794 11.8559C25.5022 11.8641 25.2392 11.9799 25.046 12.1788L18.646 18.5788C18.5437 18.6771 18.4619 18.7948 18.4056 18.9251C18.3493 19.0553 18.3196 19.1955 18.3181 19.3374C18.3167 19.4794 18.3436 19.6201 18.3972 19.7515C18.4508 19.8829 18.5302 20.0023 18.6305 20.1026C18.7309 20.203 18.8502 20.2823 18.9816 20.3359C19.113 20.3896 19.2538 20.4165 19.3957 20.415C19.5376 20.4136 19.6778 20.3838 19.8081 20.3275C19.9383 20.2712 20.0561 20.1895 20.1544 20.0871L26.5544 13.6871C26.7085 13.5373 26.8138 13.3444 26.8564 13.1337C26.899 12.923 26.877 12.7044 26.7932 12.5064C26.7094 12.3085 26.5678 12.1404 26.3869 12.0243C26.206 11.9083 25.9942 11.8495 25.7794 11.8559ZM11.1794 14.3121L1.02311 22.985C0.76716 23.1843 0.560009 23.4393 0.417412 23.7306C0.274814 24.0219 0.200526 24.3419 0.200195 24.6663C0.200195 25.2321 0.424956 25.7747 0.825034 26.1748C1.22511 26.5749 1.76773 26.7996 2.33353 26.7996C2.65147 26.7996 2.96538 26.7285 3.2523 26.5915C3.53923 26.4545 3.79191 26.2551 3.99186 26.008C3.99535 26.0038 3.99882 25.9996 4.00228 25.9955L4.00436 25.9934L12.6877 15.8205L11.1794 14.3121Z" fill="white"/>
</svg>
