<svg width="27" height="24" viewBox="0 0 27 24" fill="none" xmlns="http://www.w3.org/2000/svg">
<g clip-path="url(#clip0)">
<path d="M4.82257 14.8449C3.66657 14.8449 2.52709 14.8615 1.37109 14.8615C1.23897 14.8615 1.10686 14.8615 1.02429 14.7126C0.743546 14.2164 0.44629 13.7202 0.231604 13.1744C-0.181253 12.1324 0.000404308 11.14 0.528861 10.2138C1.99863 7.617 3.50143 5.05333 4.9712 2.47311C5.84646 0.951447 7.1676 0.256774 8.88508 0.240234C11.676 0.240234 14.4834 0.240234 17.2743 0.240234C18.8762 0.240234 20.1643 0.835669 20.957 2.27463C21.1056 2.55581 21.3038 2.63851 21.6176 2.63851C22.4928 2.62197 23.3681 2.63851 24.2434 2.62197C24.5406 2.62197 24.6562 2.65505 24.458 2.98585C23.9956 3.74668 23.5498 4.52405 23.1204 5.30143C22.9718 5.56606 22.8066 5.64876 22.5094 5.64876C19.0414 5.63222 15.5734 5.63222 12.1054 5.64876C11.5108 5.64876 10.9163 5.6653 10.3714 5.94648C9.71079 6.27728 9.29794 6.82309 9.06674 7.51776C8.94679 7.67461 9.0085 7.63297 8.94679 7.67461C8.08805 9.16319 7.34903 10.7818 6.5068 12.2704C6.01138 13.1636 5.25194 13.9021 4.82257 14.8449Z" fill="white"/>
<path d="M18.1659 23.7102C18.1164 23.7267 18.0669 23.7267 18.0008 23.7433C17.9496 23.7433 17.9602 23.7433 17.9182 23.7433C16.2668 23.7433 14.6319 23.7433 12.9805 23.7433C12.997 23.6771 12.9805 23.5944 13.0135 23.5448C13.8557 22.0727 14.698 20.6338 15.5237 19.1783C15.7879 18.7151 16.1347 18.2851 16.2668 17.7393C16.2998 17.7062 16.3163 17.6731 16.3494 17.6401C17.2577 16.5153 17.1586 15.3576 16.465 14.1667C15.8705 13.1578 15.2925 12.1488 14.731 11.1399C14.1034 10.0483 14.5824 9.17166 15.8374 9.17166C18.7605 9.15512 21.6835 9.17166 24.6065 9.17166C24.8542 9.17166 25.0194 9.23782 25.135 9.46937C25.2506 9.71747 25.3992 9.94903 25.5313 10.1971C26.2084 11.4376 26.2084 12.6781 25.4983 13.9186C23.9955 16.5484 22.4927 19.1783 20.9569 21.7916C20.4284 22.7012 19.6687 23.3959 18.5788 23.6109C18.5436 23.6179 18.5348 23.6219 18.5127 23.6275C18.4467 23.644 18.3971 23.6606 18.3311 23.6771C18.2305 23.7023 18.2544 23.6806 18.1659 23.7102Z" fill="white"/>
<path fill-rule="evenodd" clip-rule="evenodd" d="M5.85839 12.9864C5.49427 13.5962 5.13085 14.2048 4.82265 14.845C6.63951 14.845 8.47259 14.8612 10.3219 14.8776L10.3714 14.878C10.8173 14.878 11.2632 14.7457 11.4614 14.3653C11.6761 13.9187 11.6596 13.4391 11.3788 12.9594C10.9799 12.3102 10.6051 11.655 10.229 10.9974C9.98219 10.566 9.73482 10.1335 9.47967 9.70108C9.08333 9.00641 9.03379 8.27865 9.08333 7.51782C9.00276 7.53127 8.96587 7.5994 8.92826 7.66886C8.91961 7.68482 8.91093 7.70085 8.90167 7.7163C8.04293 9.18835 7.18419 10.6769 6.34196 12.1655C6.18388 12.4413 6.02106 12.714 5.85839 12.9864ZM15.7452 18.8152C15.9564 18.4797 16.1697 18.1409 16.2669 17.7394C15.6228 18.2522 14.8797 18.3845 14.054 18.401C10.5364 18.401 7.00237 18.401 3.48484 18.3845C3.22061 18.3845 3.07198 18.4672 2.93987 18.6987C2.47747 19.5092 2.01507 20.3031 1.53616 21.1136C1.38753 21.3617 1.45359 21.4444 1.73433 21.4444C1.97555 21.4444 2.21542 21.4471 2.45471 21.4498C3.0509 21.4565 3.64349 21.4632 4.24449 21.4278C4.72341 21.4113 4.98763 21.5601 5.21883 21.9736C5.81335 22.9826 6.67209 23.6938 7.8446 23.7434C8.97797 23.7875 10.1187 23.7728 11.2618 23.7581C11.8343 23.7508 12.4074 23.7434 12.9805 23.7434C12.9805 23.6772 12.9805 23.5945 13.0136 23.5449C13.8558 22.0894 14.698 20.6339 15.5237 19.1784C15.5936 19.0559 15.6693 18.9358 15.7452 18.8152Z" fill="#C6CBCF"/>
</g>
<defs>
<clipPath id="clip0">
<rect width="26.0265" height="23.5197" fill="white" transform="translate(0 0.240234)"/>
</clipPath>
</defs>
</svg>
