<svg width="77" height="24" viewBox="0 0 77 24" fill="none" xmlns="http://www.w3.org/2000/svg">
  <g clip-path="url(#clip0_1479:11577)">
    <path d="M4.82257 14.8449C3.66657 14.8449 2.52709 14.8615 1.37109 14.8615C1.23897 14.8615 1.10686 14.8615 1.02429 14.7126C0.743546 14.2164 0.44629 13.7202 0.231604 13.1744C-0.181253 12.1324 0.000404308 11.14 0.528861 10.2138C1.99863 7.617 3.50143 5.05333 4.9712 2.47311C5.84646 0.951447 7.1676 0.256774 8.88508 0.240234C11.676 0.240234 14.4834 0.240234 17.2743 0.240234C18.8762 0.240234 20.1643 0.835669 20.957 2.27463C21.1056 2.55581 21.3038 2.63851 21.6176 2.63851C22.4928 2.62197 23.3681 2.63851 24.2434 2.62197C24.5406 2.62197 24.6562 2.65505 24.458 2.98585C23.9956 3.74668 23.5498 4.52405 23.1204 5.30143C22.9718 5.56606 22.8066 5.64876 22.5094 5.64876C19.0414 5.63222 15.5734 5.63222 12.1054 5.64876C11.5108 5.64876 10.9163 5.6653 10.3714 5.94648C9.71079 6.27728 9.29794 6.82309 9.06674 7.51776C8.94679 7.67461 9.0085 7.63297 8.94679 7.67461C8.08805 9.16319 7.34903 10.7818 6.5068 12.2704C6.01138 13.1636 5.25194 13.9021 4.82257 14.8449Z" fill="black"/>
    <path d="M18.1659 23.7104C18.1164 23.727 18.0669 23.727 18.0008 23.7435C17.9496 23.7435 17.9602 23.7435 17.9182 23.7435C16.2668 23.7435 14.6319 23.7435 12.9805 23.7435C12.997 23.6773 12.9805 23.5946 13.0135 23.545C13.8557 22.073 14.698 20.634 15.5237 19.1785C15.7879 18.7154 16.1347 18.2854 16.2668 17.7395C16.2998 17.7065 16.3163 17.6734 16.3494 17.6403C17.2577 16.5156 17.1586 15.3578 16.465 14.1669C15.8705 13.158 15.2925 12.1491 14.731 11.1401C14.1034 10.0485 14.5824 9.1719 15.8374 9.1719C18.7605 9.15536 21.6835 9.1719 24.6065 9.1719C24.8542 9.1719 25.0194 9.23806 25.135 9.46962C25.2506 9.71772 25.3992 9.94927 25.5313 10.1974C26.2084 11.4379 26.2084 12.6783 25.4983 13.9188C23.9955 16.5487 22.4927 19.1785 20.9569 21.7918C20.4284 22.7015 19.6687 23.3962 18.5788 23.6112C18.5436 23.6181 18.5348 23.6222 18.5127 23.6277C18.4467 23.6443 18.3971 23.6608 18.3311 23.6773C18.2305 23.7025 18.2544 23.6809 18.1659 23.7104Z" fill="black"/>
    <path fill-rule="evenodd" clip-rule="evenodd" d="M5.85839 12.9862C5.49427 13.5959 5.13085 14.2045 4.82265 14.8447C6.63951 14.8447 8.47259 14.861 10.3219 14.8774L10.3714 14.8778C10.8173 14.8778 11.2632 14.7455 11.4614 14.3651C11.6761 13.9185 11.6596 13.4388 11.3788 12.9592C10.9799 12.31 10.6051 11.6548 10.229 10.9972C9.98219 10.5657 9.73482 10.1333 9.47967 9.70084C9.08333 9.00616 9.03379 8.27841 9.08333 7.51758C9.00276 7.53103 8.96587 7.59916 8.92826 7.66861C8.91961 7.68457 8.91093 7.7006 8.90167 7.71606C8.04293 9.1881 7.18419 10.6767 6.34196 12.1653C6.18388 12.4411 6.02106 12.7137 5.85839 12.9862ZM15.7452 18.8149C15.9564 18.4795 16.1697 18.1406 16.2669 17.7392C15.6228 18.2519 14.8797 18.3842 14.054 18.4008C10.5364 18.4008 7.00237 18.4008 3.48484 18.3842C3.22061 18.3842 3.07198 18.4669 2.93987 18.6985C2.47747 19.5089 2.01507 20.3029 1.53616 21.1133C1.38753 21.3614 1.45359 21.4441 1.73433 21.4441C1.97555 21.4441 2.21542 21.4468 2.45471 21.4495C3.0509 21.4563 3.64349 21.463 4.24449 21.4276C4.72341 21.411 4.98763 21.5599 5.21883 21.9734C5.81335 22.9823 6.67209 23.6935 7.8446 23.7431C8.97797 23.7872 10.1187 23.7726 11.2618 23.7579C11.8343 23.7505 12.4074 23.7431 12.9805 23.7431C12.9805 23.677 12.9805 23.5943 13.0136 23.5447C13.8558 22.0892 14.698 20.6337 15.5237 19.1781C15.5936 19.0557 15.6693 18.9355 15.7452 18.8149Z" fill="#C6CBCF"/>
  </g>
  <path d="M37.0264 19.4284V4.57129H39.883L47.2256 15.035V4.57129H50.0823V19.4284H47.2256L39.883 8.98598V19.4284H37.0264Z" fill="black"/>
  <path d="M52.8877 19.4284V4.57129H62.9753V6.75741H55.7444V10.9174H61.5916V13.0611H55.7444V19.4284H52.8877Z" fill="black"/>
  <path d="M68.5945 19.4284V6.75741H47.2407V4.57129H76.0264V6.75741H71.4512V19.4284H68.5945Z" fill="black"/>
  <defs>
    <clipPath id="clip0_1479:11577">
      <rect width="26.0265" height="23.5197" fill="black" transform="translate(0 0.240234)"/>
    </clipPath>
  </defs>
</svg>
