<svg width="235" height="65" viewBox="0 0 235 65" fill="none" xmlns="http://www.w3.org/2000/svg">
<path d="M13.3004 40.4C10.1004 40.4 7.00039 40.4 3.80039 40.4C3.40039 40.4 3.10039 40.4 2.80039 40C2.00039 38.6 1.20039 37.3 0.600392 35.7C-0.499608 32.8 0.00039196 30.1 1.40039 27.5C5.50039 20.3 9.60039 13.2 13.7004 6.1C16.2004 2 19.8004 0 24.6004 0C32.3004 0 40.0004 0 47.7004 0C52.1004 0 55.7004 1.6 57.9004 5.6C58.3004 6.4 58.9004 6.6 59.7004 6.6C62.1004 6.6 64.5004 6.6 67.0004 6.6C67.8004 6.6 68.1004 6.7 67.6004 7.6C66.3004 9.7 65.1004 11.9 63.9004 14C63.5004 14.7 63.0004 15 62.2004 15C52.6004 15 43.0004 15 33.4004 15C31.8004 15 30.1004 15 28.6004 15.8C26.8004 16.7 25.6004 18.2 25.0004 20.1C24.7004 20.5 24.8004 20.4 24.7004 20.5C22.3004 24.6 20.3004 29.1 18.0004 33.2C16.6004 35.7 14.5004 37.8 13.3004 40.4Z" fill="white"/>
<path d="M50.2004 64.9002C50.1004 64.9002 49.9004 64.9002 49.7004 65.0002C49.6004 65.0002 49.6004 65.0002 49.5004 65.0002C44.9004 65.0002 40.4004 65.0002 35.9004 65.0002C35.9004 64.8002 35.9004 64.6002 36.0004 64.5002C38.3004 60.4002 40.7004 56.5002 42.9004 52.4002C43.6004 51.1002 44.6004 49.9002 45.0004 48.4002C45.1004 48.3002 45.1004 48.2002 45.2004 48.1002C47.7004 45.0002 47.4004 41.8002 45.5004 38.5002C43.9004 35.7002 42.3004 32.9002 40.7004 30.1002C39.0004 27.1002 40.3004 24.7002 43.8004 24.7002C51.9004 24.7002 60.0004 24.7002 68.0004 24.7002C68.7004 24.7002 69.1004 24.9002 69.5004 25.5002C69.8004 26.2002 70.2004 26.8002 70.6004 27.5002C72.5004 30.9002 72.5004 34.4002 70.5004 37.8002C66.3004 45.1002 62.2004 52.3002 57.9004 59.6002C56.4004 62.1002 54.3004 64.0002 51.3004 64.6002C51.2004 64.6002 51.2004 64.6002 51.1004 64.6002C50.9004 64.6002 50.8004 64.7002 50.6004 64.7002C50.4004 64.8002 50.4004 64.8002 50.2004 64.9002Z" fill="white"/>
<path fill-rule="evenodd" clip-rule="evenodd" d="M16.2 35.2001C15.2 36.9001 14.2 38.6001 13.3 40.3001C18.3 40.3001 23.4 40.3001 28.5 40.4001H28.6C29.8 40.4001 31.1 40.0001 31.6 39.0001C32.2 37.8001 32.1 36.4001 31.4 35.1001C30.3 33.3001 29.3 31.5001 28.2 29.7001C27.5 28.5001 26.8 27.3001 26.1 26.1001C25 24.2001 24.9 22.2001 25 20.1001C24.8 20.1001 24.7 20.3001 24.6 20.5001C24.6 20.5001 24.6 20.6001 24.5 20.6001C22.1 24.7001 19.8 28.8001 17.4 32.9001C17.1 33.7001 16.6 34.5001 16.2 35.2001ZM43.5 51.3001C44.1 50.4001 44.7 49.4001 44.9 48.3001C43.1 49.7001 41.1 50.1001 38.8 50.1001C29.1 50.1001 19.3 50.1001 9.59996 50.1001C8.89996 50.1001 8.49996 50.3001 8.09996 51.0001C6.79996 53.2001 5.49996 55.4001 4.19996 57.7001C3.79996 58.4001 3.99996 58.6001 4.69996 58.6001C5.39996 58.6001 5.99996 58.6001 6.69996 58.6001C8.29996 58.6001 9.99996 58.6001 11.6 58.5001C12.9 58.5001 13.7 58.9001 14.3 60.0001C15.9 62.8001 18.3 64.8001 21.6 64.9001C24.7 65.0001 27.9 65.0001 31 64.9001C32.6 64.9001 34.2 64.9001 35.7 64.9001C35.7 64.7001 35.7 64.5001 35.8 64.4001C38.1 60.4001 40.5 56.4001 42.7 52.3001C43.1 52.0001 43.3 51.7001 43.5 51.3001Z" fill="#C6CBCF"/>
<path d="M93.2 52.3999C92.8 52.3999 92.4 52.4999 92.2 52.6999C91.9 52.8999 91.7 53.1999 91.6 53.4999C91.5 53.7999 91.3 54.1999 91.3 54.5999C91.2 54.9999 91.1 55.2999 91 55.6999C90.9 55.9999 90.8 56.2999 90.6 56.4999C90.4 56.6999 90.2 56.7999 89.9 56.7999C89.2 56.7999 88.9 56.2999 88.9 55.1999C88.9 54.5999 89 54.1999 89.2 53.9999C89.4 53.7999 89.7 53.5999 90 53.5999V52.5999C89.7 52.5999 89.3 52.7999 89 52.8999C88.7 53.0999 88.5 53.3999 88.3 53.6999C88.1 54.0999 88 54.4999 88 55.0999C88 55.9999 88.2 56.5999 88.5 56.9999C88.8 57.3999 89.3 57.5999 90 57.5999C90.4 57.5999 90.8 57.4999 91 57.2999C91.2 57.0999 91.4 56.7999 91.6 56.4999C91.7 56.1999 91.8 55.7999 91.9 55.3999C92 54.9999 92.1 54.6999 92.2 54.2999C92.3 53.9999 92.4 53.6999 92.6 53.4999C92.8 53.2999 93 53.1999 93.3 53.1999C93.5 53.1999 93.7 53.2999 93.9 53.3999C94.1 53.4999 94.2 53.6999 94.2 53.8999C94.3 54.0999 94.3 54.2999 94.4 54.4999C94.4 54.6999 94.4 54.8999 94.4 54.9999C94.4 55.3999 94.3 55.7999 94.2 55.9999C94.1 56.2999 93.9 56.4999 93.7 56.5999C93.5 56.6999 93.2 56.7999 93 56.7999V57.7999C93.4 57.7999 93.8 57.5999 94.2 57.3999C94.5 57.1999 94.8 56.8999 95 56.3999C95.2 55.9999 95.3 55.4999 95.3 54.7999C95.3 53.9999 95.1 53.2999 94.8 52.7999C94.4 52.6999 93.9 52.3999 93.2 52.3999Z" fill="white"/>
<path d="M88.0996 49.1999L95.1996 47.0999V45.9999L89.4996 44.2999L95.1996 42.5999V41.4999L88.0996 39.3999V40.4999L93.8996 42.0999L88.0996 43.7999V44.7999L93.8996 46.4999L88.0996 48.0999V49.1999Z" fill="white"/>
<path d="M94.1 30.7002H95.2V29.7002H88.1V30.7002H89.2C88.8 30.9002 88.5 31.3002 88.3 31.7002C88.1 32.0002 88 32.5002 88 33.1002C88 33.7002 88.2 34.3002 88.5 34.8002C88.8 35.3002 89.3 35.6002 89.8 35.9002C90.3 36.2002 91 36.3002 91.6 36.3002C92.3 36.3002 92.9 36.2002 93.4 35.9002C94 35.6002 94.4 35.3002 94.7 34.8002C95 34.3002 95.2 33.7002 95.2 33.1002C95.2 32.6002 95.1 32.1002 94.9 31.7002C94.7 31.3002 94.4 30.9002 94.1 30.7002ZM94 34.2002C93.8 34.6002 93.4 34.8002 93 35.0002C92.6 35.2002 92.1 35.3002 91.7 35.3002C91.2 35.3002 90.8 35.2002 90.4 35.0002C90 34.8002 89.7 34.5002 89.4 34.2002C89.2 33.8002 89 33.4002 89 32.9002C89 32.4002 89.1 32.0002 89.4 31.7002C89.6 31.4002 90 31.1002 90.4 30.9002C90.8 30.7002 91.3 30.6002 91.7 30.6002C92.2 30.6002 92.6 30.7002 93 30.9002C93.4 31.1002 93.7 31.3002 94 31.7002C94.2 32.0002 94.4 32.5002 94.4 32.9002C94.3 33.4002 94.2 33.8002 94 34.2002Z" fill="white"/>
<path d="M94.9996 23.3002C95.1996 22.9002 95.2996 22.4002 95.2996 21.9002C95.2996 21.3002 95.0996 20.7002 94.7996 20.2002C94.4996 19.7002 93.9996 19.3002 93.4996 19.1002C92.8996 18.8002 92.2996 18.7002 91.6996 18.7002C90.9996 18.7002 90.3996 18.8002 89.8996 19.1002C89.2996 19.4002 88.8996 19.7002 88.5996 20.2002C88.2996 20.7002 88.0996 21.2002 88.0996 21.9002C88.0996 22.4002 88.1996 22.9002 88.3996 23.3002C88.5996 23.7002 88.8996 24.0002 89.2996 24.3002H88.1996V25.3002H97.9996V24.3002H93.9996C94.3996 24.0002 94.6996 23.7002 94.9996 23.3002ZM92.9996 24.0002C92.5996 24.2002 92.0996 24.3002 91.6996 24.3002C91.1996 24.3002 90.7996 24.2002 90.3996 24.0002C89.9996 23.8002 89.6996 23.6002 89.3996 23.2002C89.0996 22.9002 88.9996 22.5002 88.9996 22.0002C88.9996 21.5002 89.0996 21.1002 89.3996 20.7002C89.5996 20.3002 89.9996 20.1002 90.3996 19.9002C90.7996 19.7002 91.2996 19.6002 91.6996 19.6002C92.1996 19.6002 92.5996 19.7002 92.9996 19.9002C93.3996 20.1002 93.6996 20.4002 93.9996 20.7002C94.1996 21.0002 94.3996 21.5002 94.3996 22.0002C94.3996 22.5002 94.2996 22.9002 93.9996 23.2002C93.6996 23.6002 93.3996 23.8002 92.9996 24.0002Z" fill="white"/>
<path d="M94.9996 12.6C95.1996 12.2 95.2996 11.7 95.2996 11.2C95.2996 10.6 95.0996 10 94.7996 9.5C94.4996 9 93.9996 8.6 93.4996 8.4C92.8996 8.1 92.2996 8 91.6996 8C90.9996 8 90.3996 8.1 89.8996 8.4C89.2996 8.7 88.8996 9 88.5996 9.5C88.2996 10 88.0996 10.5 88.0996 11.2C88.0996 11.7 88.1996 12.2 88.3996 12.6C88.5996 13 88.8996 13.3 89.2996 13.6H88.1996V14.6H97.9996V13.6H93.9996C94.3996 13.3 94.6996 13 94.9996 12.6ZM92.9996 13.4C92.5996 13.6 92.0996 13.7 91.6996 13.7C91.1996 13.7 90.7996 13.6 90.3996 13.4C89.9996 13.2 89.6996 13 89.3996 12.6C89.1996 12.3 88.9996 11.8 88.9996 11.4C88.9996 10.9 89.0996 10.5 89.3996 10.1C89.5996 9.7 89.9996 9.5 90.3996 9.3C90.6996 9.1 91.1996 9 91.6996 9C92.1996 9 92.5996 9.1 92.9996 9.3C93.3996 9.5 93.6996 9.8 93.9996 10.1C94.1996 10.4 94.3996 10.9 94.3996 11.4C94.3996 11.9 94.2996 12.3 93.9996 12.6C93.6996 12.9 93.3996 13.2 92.9996 13.4Z" fill="white"/>
<path d="M191.5 9.1001H157.9H148.6H139.1V43.9001L114.7 9.1001H105.2V58.6001H114.7V23.8001L139.1 58.6001H148.6V16.4001H157.9V58.6001H167.4V37.4001H186.9V30.2001H167.4V16.4001H191.5H200.2V58.6001H209.7V16.4001H224.9V9.1001H191.5Z" fill="white"/>
</svg>
