<svg width="0" height="0" class="hidden">
    <symbol fill="none" xmlns="http://www.w3.org/2000/svg" viewBox="0 0 37 37" id="approved">
        <path d="M15.9454 4.29491C17.0976 2.35776 19.9024 2.35776 21.0546 4.29491C21.8173 5.5771 23.4122 6.09532 24.7828 5.50628C26.8536 4.61635 29.1227 6.26496 28.9163 8.50941C28.7796 9.99498 29.7653 11.3517 31.2204 11.6808C33.4188 12.178 34.2855 14.8455 32.7993 16.54C31.8155 17.6615 31.8155 19.3385 32.7993 20.46C34.2855 22.1545 33.4188 24.822 31.2204 25.3192C29.7653 25.6483 28.7796 27.005 28.9163 28.4906C29.1227 30.735 26.8536 32.3837 24.7828 31.4937C23.4122 30.9047 21.8173 31.4229 21.0546 32.7051C19.9024 34.6422 17.0976 34.6422 15.9454 32.7051C15.1827 31.4229 13.5878 30.9047 12.2172 31.4937C10.1464 32.3837 7.87727 30.735 8.08374 28.4906C8.22039 27.005 7.23467 25.6483 5.77958 25.3192C3.58118 24.822 2.71445 22.1545 4.20074 20.46C5.1845 19.3385 5.1845 17.6615 4.20074 16.54C2.71445 14.8455 3.58118 12.178 5.77958 11.6808C7.23467 11.3517 8.22039 9.99498 8.08374 8.50941C7.87727 6.26496 10.1464 4.61635 12.2172 5.50628C13.5878 6.09532 15.1827 5.5771 15.9454 4.29491Z"
              fill="#0FC0CB"/>
        <path d="M13 18.5L16.6677 22L24 15" stroke="white" stroke-width="2.5" stroke-linecap="round"
              stroke-linejoin="round"/>
    </symbol>
    <symbol fill="none" xmlns="http://www.w3.org/2000/svg" viewBox="0 0 24 24" id="filter-light">
        <path d="M10.1174 17.9866H2.8833" stroke="#FCFCFD" stroke-width="1.5" stroke-linecap="round"
              stroke-linejoin="round"/>
        <path fill-rule="evenodd" clip-rule="evenodd"
              d="M21.1179 17.9866C21.1179 19.5772 19.8285 20.8666 18.2379 20.8666C16.6473 20.8666 15.3579 19.5772 15.3579 17.9866C15.3579 16.3948 16.6473 15.1066 18.2379 15.1066C19.8285 15.1066 21.1179 16.3948 21.1179 17.9866Z"
              stroke="#FCFCFD" stroke-width="1.5" stroke-linecap="round" stroke-linejoin="round"/>
        <path d="M13.8828 6.26211H21.1181" stroke="#FCFCFD" stroke-width="1.5" stroke-linecap="round"
              stroke-linejoin="round"/>
        <path fill-rule="evenodd" clip-rule="evenodd"
              d="M2.88281 6.26211C2.88281 7.85388 4.17222 9.14211 5.76281 9.14211C7.3534 9.14211 8.64281 7.85388 8.64281 6.26211C8.64281 4.67152 7.3534 3.38211 5.76281 3.38211C4.17222 3.38211 2.88281 4.67152 2.88281 6.26211Z"
              stroke="#FCFCFD" stroke-width="1.5" stroke-linecap="round" stroke-linejoin="round"/>
    </symbol>
    <symbol fill="none" xmlns="http://www.w3.org/2000/svg" viewBox="0 0 24 24" id="filter-dark">
        <path d="M10.1174 17.9866H2.8833" stroke="#777E90" stroke-width="1.5" stroke-linecap="round"
              stroke-linejoin="round"/>
        <path fill-rule="evenodd" clip-rule="evenodd"
              d="M21.1179 17.9866C21.1179 19.5772 19.8285 20.8666 18.2379 20.8666C16.6473 20.8666 15.3579 19.5772 15.3579 17.9866C15.3579 16.3948 16.6473 15.1066 18.2379 15.1066C19.8285 15.1066 21.1179 16.3948 21.1179 17.9866Z"
              stroke="#777E90" stroke-width="1.5" stroke-linecap="round" stroke-linejoin="round"/>
        <path d="M13.8828 6.26211H21.1181" stroke="#777E90" stroke-width="1.5" stroke-linecap="round"
              stroke-linejoin="round"/>
        <path fill-rule="evenodd" clip-rule="evenodd"
              d="M2.88281 6.26211C2.88281 7.85388 4.17222 9.14211 5.76281 9.14211C7.3534 9.14211 8.64281 7.85388 8.64281 6.26211C8.64281 4.67152 7.3534 3.38211 5.76281 3.38211C4.17222 3.38211 2.88281 4.67152 2.88281 6.26211Z"
              stroke="#777E90" stroke-width="1.5" stroke-linecap="round" stroke-linejoin="round"/>
    </symbol>
    <symbol fill="none" xmlns="http://www.w3.org/2000/svg" viewBox="0 0 24 24" id="filter">
        <path d="M10.1174 17.9866H2.8833" stroke="#FCFCFD" stroke-width="1.5" stroke-linecap="round"
              stroke-linejoin="round"/>
        <path fill-rule="evenodd" clip-rule="evenodd"
              d="M21.1179 17.9866C21.1179 19.5772 19.8285 20.8666 18.2379 20.8666C16.6473 20.8666 15.3579 19.5772 15.3579 17.9866C15.3579 16.3948 16.6473 15.1066 18.2379 15.1066C19.8285 15.1066 21.1179 16.3948 21.1179 17.9866Z"
              stroke="#FCFCFD" stroke-width="1.5" stroke-linecap="round" stroke-linejoin="round"/>
        <path d="M13.8828 6.26211H21.1181" stroke="#FCFCFD" stroke-width="1.5" stroke-linecap="round"
              stroke-linejoin="round"/>
        <path fill-rule="evenodd" clip-rule="evenodd"
              d="M2.88281 6.26211C2.88281 7.85388 4.17222 9.14211 5.76281 9.14211C7.3534 9.14211 8.64281 7.85388 8.64281 6.26211C8.64281 4.67152 7.3534 3.38211 5.76281 3.38211C4.17222 3.38211 2.88281 4.67152 2.88281 6.26211Z"
              stroke="#FCFCFD" stroke-width="1.5" stroke-linecap="round" stroke-linejoin="round"/>
    </symbol>
    <symbol fill="none" xmlns="http://www.w3.org/2000/svg" viewBox="0 0 27 24" id="icon-dark">
        <g clip-path="url(#clip0)">
            <path d="M4.82257 14.8449C3.66657 14.8449 2.52709 14.8615 1.37109 14.8615C1.23897 14.8615 1.10686 14.8615 1.02429 14.7126C0.743546 14.2164 0.44629 13.7202 0.231604 13.1744C-0.181253 12.1324 0.000404308 11.14 0.528861 10.2138C1.99863 7.617 3.50143 5.05333 4.9712 2.47311C5.84646 0.951447 7.1676 0.256774 8.88508 0.240234C11.676 0.240234 14.4834 0.240234 17.2743 0.240234C18.8762 0.240234 20.1643 0.835669 20.957 2.27463C21.1056 2.55581 21.3038 2.63851 21.6176 2.63851C22.4928 2.62197 23.3681 2.63851 24.2434 2.62197C24.5406 2.62197 24.6562 2.65505 24.458 2.98585C23.9956 3.74668 23.5498 4.52405 23.1204 5.30143C22.9718 5.56606 22.8066 5.64876 22.5094 5.64876C19.0414 5.63222 15.5734 5.63222 12.1054 5.64876C11.5108 5.64876 10.9163 5.6653 10.3714 5.94648C9.71079 6.27728 9.29794 6.82309 9.06674 7.51776C8.94679 7.67461 9.0085 7.63297 8.94679 7.67461C8.08805 9.16319 7.34903 10.7818 6.5068 12.2704C6.01138 13.1636 5.25194 13.9021 4.82257 14.8449Z"
                  fill="white"/>
            <path d="M18.1659 23.7102C18.1164 23.7267 18.0669 23.7267 18.0008 23.7433C17.9496 23.7433 17.9602 23.7433 17.9182 23.7433C16.2668 23.7433 14.6319 23.7433 12.9805 23.7433C12.997 23.6771 12.9805 23.5944 13.0135 23.5448C13.8557 22.0727 14.698 20.6338 15.5237 19.1783C15.7879 18.7151 16.1347 18.2851 16.2668 17.7393C16.2998 17.7062 16.3163 17.6731 16.3494 17.6401C17.2577 16.5153 17.1586 15.3576 16.465 14.1667C15.8705 13.1578 15.2925 12.1488 14.731 11.1399C14.1034 10.0483 14.5824 9.17166 15.8374 9.17166C18.7605 9.15512 21.6835 9.17166 24.6065 9.17166C24.8542 9.17166 25.0194 9.23782 25.135 9.46937C25.2506 9.71747 25.3992 9.94903 25.5313 10.1971C26.2084 11.4376 26.2084 12.6781 25.4983 13.9186C23.9955 16.5484 22.4927 19.1783 20.9569 21.7916C20.4284 22.7012 19.6687 23.3959 18.5788 23.6109C18.5436 23.6179 18.5348 23.6219 18.5127 23.6275C18.4467 23.644 18.3971 23.6606 18.3311 23.6771C18.2305 23.7023 18.2544 23.6806 18.1659 23.7102Z"
                  fill="white"/>
            <path fill-rule="evenodd" clip-rule="evenodd"
                  d="M5.85839 12.9864C5.49427 13.5962 5.13085 14.2048 4.82265 14.845C6.63951 14.845 8.47259 14.8612 10.3219 14.8776L10.3714 14.878C10.8173 14.878 11.2632 14.7457 11.4614 14.3653C11.6761 13.9187 11.6596 13.4391 11.3788 12.9594C10.9799 12.3102 10.6051 11.655 10.229 10.9974C9.98219 10.566 9.73482 10.1335 9.47967 9.70108C9.08333 9.00641 9.03379 8.27865 9.08333 7.51782C9.00276 7.53127 8.96587 7.5994 8.92826 7.66886C8.91961 7.68482 8.91093 7.70085 8.90167 7.7163C8.04293 9.18835 7.18419 10.6769 6.34196 12.1655C6.18388 12.4413 6.02106 12.714 5.85839 12.9864ZM15.7452 18.8152C15.9564 18.4797 16.1697 18.1409 16.2669 17.7394C15.6228 18.2522 14.8797 18.3845 14.054 18.401C10.5364 18.401 7.00237 18.401 3.48484 18.3845C3.22061 18.3845 3.07198 18.4672 2.93987 18.6987C2.47747 19.5092 2.01507 20.3031 1.53616 21.1136C1.38753 21.3617 1.45359 21.4444 1.73433 21.4444C1.97555 21.4444 2.21542 21.4471 2.45471 21.4498C3.0509 21.4565 3.64349 21.4632 4.24449 21.4278C4.72341 21.4113 4.98763 21.5601 5.21883 21.9736C5.81335 22.9826 6.67209 23.6938 7.8446 23.7434C8.97797 23.7875 10.1187 23.7728 11.2618 23.7581C11.8343 23.7508 12.4074 23.7434 12.9805 23.7434C12.9805 23.6772 12.9805 23.5945 13.0136 23.5449C13.8558 22.0894 14.698 20.6339 15.5237 19.1784C15.5936 19.0559 15.6693 18.9358 15.7452 18.8152Z"
                  fill="#C6CBCF"/>
        </g>
        <defs>
            <clipPath id="clip0">
                <rect width="26.0265" height="23.5197" fill="white" transform="translate(0 0.240234)"/>
            </clipPath>
        </defs>
    </symbol>
    <symbol fill="none" xmlns="http://www.w3.org/2000/svg" viewBox="0 0 77 24" id="logo-light">
        <g clip-path="url(#clip0)">
            <path d="M4.82257 14.8449C3.66657 14.8449 2.52709 14.8615 1.37109 14.8615C1.23897 14.8615 1.10686 14.8615 1.02429 14.7126C0.743546 14.2164 0.44629 13.7202 0.231604 13.1744C-0.181253 12.1324 0.000404308 11.14 0.528861 10.2138C1.99863 7.617 3.50143 5.05333 4.9712 2.47311C5.84646 0.951447 7.1676 0.256774 8.88508 0.240234C11.676 0.240234 14.4834 0.240234 17.2743 0.240234C18.8762 0.240234 20.1643 0.835669 20.957 2.27463C21.1056 2.55581 21.3038 2.63851 21.6176 2.63851C22.4928 2.62197 23.3681 2.63851 24.2434 2.62197C24.5406 2.62197 24.6562 2.65505 24.458 2.98585C23.9956 3.74668 23.5498 4.52405 23.1204 5.30143C22.9718 5.56606 22.8066 5.64876 22.5094 5.64876C19.0414 5.63222 15.5734 5.63222 12.1054 5.64876C11.5108 5.64876 10.9163 5.6653 10.3714 5.94648C9.71079 6.27728 9.29794 6.82309 9.06674 7.51776C8.94679 7.67461 9.0085 7.63297 8.94679 7.67461C8.08805 9.16319 7.34903 10.7818 6.5068 12.2704C6.01138 13.1636 5.25194 13.9021 4.82257 14.8449Z"
                  fill="white"/>
            <path d="M18.1659 23.7102C18.1164 23.7267 18.0669 23.7267 18.0008 23.7433C17.9496 23.7433 17.9602 23.7433 17.9182 23.7433C16.2668 23.7433 14.6319 23.7433 12.9805 23.7433C12.997 23.6771 12.9805 23.5944 13.0135 23.5448C13.8557 22.0727 14.698 20.6338 15.5237 19.1783C15.7879 18.7151 16.1347 18.2851 16.2668 17.7393C16.2998 17.7062 16.3163 17.6731 16.3494 17.6401C17.2577 16.5153 17.1586 15.3576 16.465 14.1667C15.8705 13.1578 15.2925 12.1488 14.731 11.1399C14.1034 10.0483 14.5824 9.17166 15.8374 9.17166C18.7605 9.15512 21.6835 9.17166 24.6065 9.17166C24.8542 9.17166 25.0194 9.23782 25.135 9.46937C25.2506 9.71747 25.3992 9.94903 25.5313 10.1971C26.2084 11.4376 26.2084 12.6781 25.4983 13.9186C23.9955 16.5484 22.4927 19.1783 20.9569 21.7916C20.4284 22.7012 19.6687 23.3959 18.5788 23.6109C18.5436 23.6179 18.5348 23.6219 18.5127 23.6275C18.4467 23.644 18.3971 23.6606 18.3311 23.6771C18.2305 23.7023 18.2544 23.6806 18.1659 23.7102Z"
                  fill="white"/>
            <path fill-rule="evenodd" clip-rule="evenodd"
                  d="M5.85839 12.9864C5.49427 13.5962 5.13085 14.2048 4.82265 14.845C6.63951 14.845 8.47259 14.8612 10.3219 14.8776L10.3714 14.878C10.8173 14.878 11.2632 14.7457 11.4614 14.3653C11.6761 13.9187 11.6596 13.4391 11.3788 12.9594C10.9799 12.3102 10.6051 11.655 10.229 10.9974C9.98219 10.566 9.73482 10.1335 9.47967 9.70108C9.08333 9.00641 9.03379 8.27865 9.08333 7.51782C9.00276 7.53127 8.96587 7.5994 8.92826 7.66886C8.91961 7.68482 8.91093 7.70085 8.90167 7.7163C8.04293 9.18835 7.18419 10.6769 6.34196 12.1655C6.18388 12.4413 6.02106 12.714 5.85839 12.9864ZM15.7452 18.8152C15.9564 18.4797 16.1697 18.1409 16.2669 17.7394C15.6228 18.2522 14.8797 18.3845 14.054 18.401C10.5364 18.401 7.00237 18.401 3.48484 18.3845C3.22061 18.3845 3.07198 18.4672 2.93987 18.6987C2.47747 19.5092 2.01507 20.3031 1.53616 21.1136C1.38753 21.3617 1.45359 21.4444 1.73433 21.4444C1.97555 21.4444 2.21542 21.4471 2.45471 21.4498C3.0509 21.4565 3.64349 21.4632 4.24449 21.4278C4.72341 21.4113 4.98763 21.5601 5.21883 21.9736C5.81335 22.9826 6.67209 23.6938 7.8446 23.7434C8.97797 23.7875 10.1187 23.7728 11.2618 23.7581C11.8343 23.7508 12.4074 23.7434 12.9805 23.7434C12.9805 23.6772 12.9805 23.5945 13.0136 23.5449C13.8558 22.0894 14.698 20.6339 15.5237 19.1784C15.5936 19.0559 15.6693 18.9358 15.7452 18.8152Z"
                  fill="#C6CBCF"/>
        </g>
        <path d="M37.0264 19.4287V4.57153H39.883L47.2256 15.0352V4.57153H50.0823V19.4287H47.2256L39.883 8.98623V19.4287H37.0264Z"
              fill="white"/>
        <path d="M52.8877 19.4287V4.57153H62.9753V6.75766H55.7444V10.9177H61.5916V13.0613H55.7444V19.4287H52.8877Z"
              fill="white"/>
        <path d="M68.5945 19.4287V6.75766H47.2407V4.57153H76.0264V6.75766H71.4512V19.4287H68.5945Z" fill="white"/>
        <defs>
            <clipPath id="clip0">
                <rect width="26.0265" height="23.5197" fill="white" transform="translate(0 0.240234)"/>
            </clipPath>
        </defs>
    </symbol>
    <symbol fill="none" xmlns="http://www.w3.org/2000/svg" viewBox="0 0 77 24" id="logo-dark">
        <g clip-path="url(#clip0)">
            <path d="M4.82257 14.8449C3.66657 14.8449 2.52709 14.8615 1.37109 14.8615C1.23897 14.8615 1.10686 14.8615 1.02429 14.7126C0.743546 14.2164 0.44629 13.7202 0.231604 13.1744C-0.181253 12.1324 0.000404308 11.14 0.528861 10.2138C1.99863 7.617 3.50143 5.05333 4.9712 2.47311C5.84646 0.951447 7.1676 0.256774 8.88508 0.240234C11.676 0.240234 14.4834 0.240234 17.2743 0.240234C18.8762 0.240234 20.1643 0.835669 20.957 2.27463C21.1056 2.55581 21.3038 2.63851 21.6176 2.63851C22.4928 2.62197 23.3681 2.63851 24.2434 2.62197C24.5406 2.62197 24.6562 2.65505 24.458 2.98585C23.9956 3.74668 23.5498 4.52405 23.1204 5.30143C22.9718 5.56606 22.8066 5.64876 22.5094 5.64876C19.0414 5.63222 15.5734 5.63222 12.1054 5.64876C11.5108 5.64876 10.9163 5.6653 10.3714 5.94648C9.71079 6.27728 9.29794 6.82309 9.06674 7.51776C8.94679 7.67461 9.0085 7.63297 8.94679 7.67461C8.08805 9.16319 7.34903 10.7818 6.5068 12.2704C6.01138 13.1636 5.25194 13.9021 4.82257 14.8449Z"
                  fill="white"/>
            <path d="M18.1659 23.7102C18.1164 23.7267 18.0669 23.7267 18.0008 23.7433C17.9496 23.7433 17.9602 23.7433 17.9182 23.7433C16.2668 23.7433 14.6319 23.7433 12.9805 23.7433C12.997 23.6771 12.9805 23.5944 13.0135 23.5448C13.8557 22.0727 14.698 20.6338 15.5237 19.1783C15.7879 18.7151 16.1347 18.2851 16.2668 17.7393C16.2998 17.7062 16.3163 17.6731 16.3494 17.6401C17.2577 16.5153 17.1586 15.3576 16.465 14.1667C15.8705 13.1578 15.2925 12.1488 14.731 11.1399C14.1034 10.0483 14.5824 9.17166 15.8374 9.17166C18.7605 9.15512 21.6835 9.17166 24.6065 9.17166C24.8542 9.17166 25.0194 9.23782 25.135 9.46937C25.2506 9.71747 25.3992 9.94903 25.5313 10.1971C26.2084 11.4376 26.2084 12.6781 25.4983 13.9186C23.9955 16.5484 22.4927 19.1783 20.9569 21.7916C20.4284 22.7012 19.6687 23.3959 18.5788 23.6109C18.5436 23.6179 18.5348 23.6219 18.5127 23.6275C18.4467 23.644 18.3971 23.6606 18.3311 23.6771C18.2305 23.7023 18.2544 23.6806 18.1659 23.7102Z"
                  fill="white"/>
            <path fill-rule="evenodd" clip-rule="evenodd"
                  d="M5.85839 12.9864C5.49427 13.5962 5.13085 14.2048 4.82265 14.845C6.63951 14.845 8.47259 14.8612 10.3219 14.8776L10.3714 14.878C10.8173 14.878 11.2632 14.7457 11.4614 14.3653C11.6761 13.9187 11.6596 13.4391 11.3788 12.9594C10.9799 12.3102 10.6051 11.655 10.229 10.9974C9.98219 10.566 9.73482 10.1335 9.47967 9.70108C9.08333 9.00641 9.03379 8.27865 9.08333 7.51782C9.00276 7.53127 8.96587 7.5994 8.92826 7.66886C8.91961 7.68482 8.91093 7.70085 8.90167 7.7163C8.04293 9.18835 7.18419 10.6769 6.34196 12.1655C6.18388 12.4413 6.02106 12.714 5.85839 12.9864ZM15.7452 18.8152C15.9564 18.4797 16.1697 18.1409 16.2669 17.7394C15.6228 18.2522 14.8797 18.3845 14.054 18.401C10.5364 18.401 7.00237 18.401 3.48484 18.3845C3.22061 18.3845 3.07198 18.4672 2.93987 18.6987C2.47747 19.5092 2.01507 20.3031 1.53616 21.1136C1.38753 21.3617 1.45359 21.4444 1.73433 21.4444C1.97555 21.4444 2.21542 21.4471 2.45471 21.4498C3.0509 21.4565 3.64349 21.4632 4.24449 21.4278C4.72341 21.4113 4.98763 21.5601 5.21883 21.9736C5.81335 22.9826 6.67209 23.6938 7.8446 23.7434C8.97797 23.7875 10.1187 23.7728 11.2618 23.7581C11.8343 23.7508 12.4074 23.7434 12.9805 23.7434C12.9805 23.6772 12.9805 23.5945 13.0136 23.5449C13.8558 22.0894 14.698 20.6339 15.5237 19.1784C15.5936 19.0559 15.6693 18.9358 15.7452 18.8152Z"
                  fill="#C6CBCF"/>
        </g>
        <path d="M37.0264 19.4287V4.57153H39.883L47.2256 15.0352V4.57153H50.0823V19.4287H47.2256L39.883 8.98623V19.4287H37.0264Z"
              fill="white"/>
        <path d="M52.8877 19.4287V4.57153H62.9753V6.75766H55.7444V10.9177H61.5916V13.0613H55.7444V19.4287H52.8877Z"
              fill="white"/>
        <path d="M68.5945 19.4287V6.75766H47.2407V4.57153H76.0264V6.75766H71.4512V19.4287H68.5945Z" fill="white"/>
        <defs>
            <clipPath id="clip0">
                <rect width="26.0265" height="23.5197" fill="white" transform="translate(0 0.240234)"/>
            </clipPath>
        </defs>
    </symbol>
    <symbol fill="none" xmlns="http://www.w3.org/2000/svg" viewBox="0 0 21 21" id="logout">
        <path d="M13.0165 5.38948V4.45648C13.0165 2.42148 11.3665 0.771484 9.33146 0.771484H4.45646C2.42246 0.771484 0.772461 2.42148 0.772461 4.45648V15.5865C0.772461 17.6215 2.42246 19.2715 4.45646 19.2715H9.34146C11.3705 19.2715 13.0165 17.6265 13.0165 15.5975V14.6545"
              stroke="#777E91" stroke-width="1.5" stroke-linecap="round" stroke-linejoin="round"/>
        <path d="M19.8096 10.0215H7.76855" stroke="#777E91" stroke-width="1.5" stroke-linecap="round"
              stroke-linejoin="round"/>
        <path d="M16.8818 7.10645L19.8098 10.0214L16.8818 12.9374" stroke="#777E91" stroke-width="1.5"
              stroke-linecap="round" stroke-linejoin="round"/>
    </symbol>
    <symbol fill="none" xmlns="http://www.w3.org/2000/svg" viewBox="0 0 16 20" id="fire">
        <path d="M0.542734 11.7097C0.771835 8.72695 2.16059 6.85777 3.38574 5.20832C4.5202 3.68129 5.5 2.36261 5.5 0.41738C5.5 0.26113 5.5875 0.118318 5.72625 0.0467163C5.86543 -0.025315 6.03266 -0.0135181 6.15918 0.078435C7.99918 1.39508 9.53441 3.61418 10.0707 5.73152C10.443 7.20562 10.4923 8.86281 10.4992 9.9573C12.1984 9.59437 12.5833 7.05265 12.5874 7.02496C12.6065 6.89312 12.6871 6.7784 12.8043 6.71574C12.9227 6.6539 13.0618 6.64941 13.1819 6.70883C13.271 6.75195 15.369 7.81797 15.4911 12.0743C15.4996 12.2159 15.5 12.3579 15.5 12.4999C15.5 16.6349 12.1354 19.9994 8 19.9994C7.9943 19.9998 7.9882 20.0006 7.98332 19.9994C7.98168 19.9994 7.98008 19.9994 7.97805 19.9994C3.85285 19.9875 0.5 16.6276 0.5 12.4999C0.5 12.292 0.542734 11.7097 0.542734 11.7097ZM8 19.1661C9.37859 19.1661 10.5 17.9715 10.5 16.5031C10.5 16.4531 10.5004 16.4026 10.4968 16.3408C10.4801 15.7215 10.3625 15.2988 10.2335 15.0176C9.99176 15.5368 9.55965 16.0141 8.85773 16.0141C8.62742 16.0141 8.44105 15.8277 8.44105 15.5974C8.44105 15.0042 8.42883 14.3198 8.28113 13.7022C8.14969 13.1545 7.83559 12.5719 7.43762 12.1048C7.26062 12.7111 6.91555 13.2017 6.57863 13.6806C6.09645 14.3658 5.59801 15.0742 5.51051 16.2822C5.50523 16.3538 5.49992 16.4258 5.49992 16.5031C5.5 17.9715 6.62141 19.1661 8 19.1661Z"
              fill="#EF466F"/>
    </symbol>
    <symbol fill="none" xmlns="http://www.w3.org/2000/svg" viewBox="0 0 16 20" id="fire-white">
        <path d="M0.542734 11.7097C0.771835 8.72695 2.16059 6.85777 3.38574 5.20832C4.5202 3.68129 5.5 2.36261 5.5 0.41738C5.5 0.26113 5.5875 0.118318 5.72625 0.0467163C5.86543 -0.025315 6.03266 -0.0135181 6.15918 0.078435C7.99918 1.39508 9.53441 3.61418 10.0707 5.73152C10.443 7.20562 10.4923 8.86281 10.4992 9.9573C12.1984 9.59437 12.5833 7.05265 12.5874 7.02496C12.6065 6.89312 12.6871 6.7784 12.8043 6.71574C12.9227 6.6539 13.0618 6.64941 13.1819 6.70883C13.271 6.75195 15.369 7.81797 15.4911 12.0743C15.4996 12.2159 15.5 12.3579 15.5 12.4999C15.5 16.6349 12.1354 19.9994 8 19.9994C7.9943 19.9998 7.9882 20.0006 7.98332 19.9994C7.98168 19.9994 7.98008 19.9994 7.97805 19.9994C3.85285 19.9875 0.5 16.6276 0.5 12.4999C0.5 12.292 0.542734 11.7097 0.542734 11.7097ZM8 19.1661C9.37859 19.1661 10.5 17.9715 10.5 16.5031C10.5 16.4531 10.5004 16.4026 10.4968 16.3408C10.4801 15.7215 10.3625 15.2988 10.2335 15.0176C9.99176 15.5368 9.55965 16.0141 8.85773 16.0141C8.62742 16.0141 8.44105 15.8277 8.44105 15.5974C8.44105 15.0042 8.42883 14.3198 8.28113 13.7022C8.14969 13.1545 7.83559 12.5719 7.43762 12.1048C7.26062 12.7111 6.91555 13.2017 6.57863 13.6806C6.09645 14.3658 5.59801 15.0742 5.51051 16.2822C5.50523 16.3538 5.49992 16.4258 5.49992 16.5031C5.5 17.9715 6.62141 19.1661 8 19.1661Z"
              fill="#FCFCFD"/>
    </symbol>
    <symbol fill="none" xmlns="http://www.w3.org/2000/svg" viewBox="0 0 17 22" id="profile">
        <circle cx="8.57881" cy="6.27803" r="4.77803" stroke="#777E91" stroke-width="1.5" stroke-linecap="round"
                stroke-linejoin="round"/>
        <path fill-rule="evenodd" clip-rule="evenodd"
              d="M1.00002 17.7016C0.998732 17.3657 1.07385 17.0339 1.2197 16.7313C1.67736 15.816 2.96798 15.3308 4.03892 15.1112C4.81128 14.9463 5.59431 14.8362 6.38217 14.7816C7.84084 14.6535 9.30793 14.6535 10.7666 14.7816C11.5544 14.8369 12.3374 14.947 13.1099 15.1112C14.1808 15.3308 15.4714 15.7702 15.9291 16.7313C16.2224 17.3481 16.2224 18.0642 15.9291 18.681C15.4714 19.6421 14.1808 20.0814 13.1099 20.2919C12.3384 20.4636 11.5551 20.5768 10.7666 20.6306C9.57937 20.7313 8.38659 20.7496 7.19681 20.6855C6.92221 20.6855 6.65677 20.6855 6.38217 20.6306C5.59663 20.5775 4.81632 20.4642 4.04807 20.2919C2.96798 20.0814 1.68652 19.6421 1.2197 18.681C1.0746 18.3749 0.999552 18.0403 1.00002 17.7016Z"
              stroke="#777E91" stroke-width="1.5" stroke-linecap="round" stroke-linejoin="round"/>
    </symbol>
    <symbol fill="none" xmlns="http://www.w3.org/2000/svg" viewBox="0 0 24 24" id="setting">
        <path fill-rule="evenodd" clip-rule="evenodd"
              d="M20.8064 7.62337L20.184 6.54328C19.6574 5.62936 18.4905 5.31408 17.5753 5.83847V5.83847C17.1397 6.0951 16.6198 6.16791 16.1305 6.04084C15.6411 5.91378 15.2224 5.59727 14.9666 5.16113C14.8021 4.8839 14.7137 4.56815 14.7103 4.2458V4.2458C14.7251 3.72898 14.5302 3.22816 14.1698 2.85743C13.8094 2.48669 13.3143 2.27762 12.7973 2.27783H11.5433C11.0367 2.27783 10.5511 2.47967 10.1938 2.8387C9.83644 3.19773 9.63693 3.68435 9.63937 4.19088V4.19088C9.62435 5.23668 8.77224 6.07657 7.72632 6.07646C7.40397 6.07311 7.08821 5.9847 6.81099 5.82017V5.82017C5.89582 5.29577 4.72887 5.61105 4.20229 6.52497L3.5341 7.62337C3.00817 8.53615 3.31916 9.70236 4.22975 10.2321V10.2321C4.82166 10.5738 5.18629 11.2053 5.18629 11.8888C5.18629 12.5723 4.82166 13.2038 4.22975 13.5456V13.5456C3.32031 14.0717 3.00898 15.2351 3.5341 16.1451V16.1451L4.16568 17.2344C4.4124 17.6795 4.82636 18.0081 5.31595 18.1472C5.80554 18.2863 6.3304 18.2247 6.77438 17.9758V17.9758C7.21084 17.7211 7.73094 17.6513 8.2191 17.782C8.70725 17.9126 9.12299 18.2328 9.37392 18.6714C9.53845 18.9486 9.62686 19.2644 9.63021 19.5868V19.5868C9.63021 20.6433 10.4867 21.4998 11.5433 21.4998H12.7973C13.8502 21.4998 14.7053 20.6489 14.7103 19.5959V19.5959C14.7079 19.0878 14.9086 18.5998 15.2679 18.2405C15.6272 17.8812 16.1152 17.6804 16.6233 17.6829C16.9449 17.6915 17.2594 17.7795 17.5387 17.9392V17.9392C18.4515 18.4651 19.6177 18.1541 20.1474 17.2435V17.2435L20.8064 16.1451C21.0615 15.7073 21.1315 15.1858 21.001 14.6961C20.8704 14.2065 20.55 13.7891 20.1108 13.5364V13.5364C19.6715 13.2837 19.3511 12.8663 19.2206 12.3767C19.09 11.8871 19.16 11.3656 19.4151 10.9277C19.581 10.6381 19.8211 10.398 20.1108 10.2321V10.2321C21.0159 9.70265 21.3262 8.54325 20.8064 7.63252V7.63252V7.62337Z"
              stroke="#777E91" stroke-width="1.5" stroke-linecap="round" stroke-linejoin="round"/>
        <circle cx="12.1752" cy="11.8886" r="2.63616" stroke="#777E91" stroke-width="1.5" stroke-linecap="round"
                stroke-linejoin="round"/>
    </symbol>
    <symbol fill="none" xmlns="http://www.w3.org/2000/svg" viewBox="0 0 24 24" id="wallet">
        <path d="M21.6389 14.3957H17.5906C16.1042 14.3948 14.8993 13.1909 14.8984 11.7045C14.8984 10.218 16.1042 9.01409 17.5906 9.01318H21.6389"
              stroke="#FCFCFD" stroke-width="1.5" stroke-linecap="round" stroke-linejoin="round"/>
        <path d="M18.049 11.6427H17.7373" stroke="#FCFCFD" stroke-width="1.5" stroke-linecap="round"
              stroke-linejoin="round"/>
        <path fill-rule="evenodd" clip-rule="evenodd"
              d="M7.74767 3H16.3911C19.2892 3 21.6388 5.34951 21.6388 8.24766V15.4247C21.6388 18.3229 19.2892 20.6724 16.3911 20.6724H7.74767C4.84951 20.6724 2.5 18.3229 2.5 15.4247V8.24766C2.5 5.34951 4.84951 3 7.74767 3Z"
              stroke="#FCFCFD" stroke-width="1.5" stroke-linecap="round" stroke-linejoin="round"/>
        <path d="M7.03516 7.5382H12.4341" stroke="#FCFCFD" stroke-width="1.5" stroke-linecap="round"
              stroke-linejoin="round"/>
    </symbol>
    <symbol fill="none" xmlns="http://www.w3.org/2000/svg" viewBox="0 0 22 18" id="discord">
        <path d="M18.952 2.67206C17.048 1.14106 14.036 0.882056 13.908 0.871056C13.707 0.854056 13.516 0.968056 13.434 1.15206C13.428 1.16406 13.362 1.31506 13.289 1.55006C14.548 1.76206 16.095 2.19006 17.495 3.05906C17.719 3.19806 17.788 3.49306 17.649 3.71806C17.559 3.86406 17.402 3.94406 17.242 3.94406C17.156 3.94406 17.069 3.92106 16.99 3.87206C14.584 2.38006 11.578 2.30506 11 2.30506C10.422 2.30506 7.415 2.38006 5.011 3.87206C4.786 4.01206 4.492 3.94206 4.352 3.71806C4.212 3.49306 4.282 3.19906 4.506 3.05906C5.906 2.19106 7.452 1.76206 8.712 1.55006C8.638 1.31406 8.572 1.16406 8.567 1.15206C8.484 0.968056 8.294 0.852056 8.092 0.872056C7.965 0.882056 4.953 1.14106 3.023 2.69406C2.015 3.62506 0 9.07306 0 13.7831C0 13.8661 0.022 13.9481 0.063 14.0201C1.454 16.4631 5.248 17.1031 6.113 17.1311C6.118 17.1311 6.123 17.1311 6.128 17.1311C6.281 17.1311 6.425 17.0581 6.515 16.9341L7.39 15.7321C5.031 15.1221 3.826 14.0871 3.756 14.0261C3.558 13.8511 3.539 13.5491 3.714 13.3511C3.889 13.1531 4.19 13.1341 4.388 13.3081C4.417 13.3341 6.636 15.2171 11 15.2171C15.372 15.2171 17.591 13.3261 17.613 13.3071C17.811 13.1351 18.113 13.1531 18.287 13.3521C18.461 13.5501 18.442 13.8511 18.245 14.0251C18.175 14.0871 16.97 15.1211 14.611 15.7311L15.486 16.9331C15.576 17.0571 15.72 17.1301 15.873 17.1301C15.878 17.1301 15.883 17.1301 15.888 17.1301C16.753 17.1031 20.547 16.4631 21.938 14.0191C21.978 13.9471 22 13.8661 22 13.7831C22 9.07306 19.985 3.62506 18.952 2.67206ZM7.891 11.8701C6.967 11.8701 6.217 11.0131 6.217 9.95706C6.217 8.90106 6.966 8.04406 7.891 8.04406C8.816 8.04406 9.565 8.90106 9.565 9.95706C9.565 11.0131 8.816 11.8701 7.891 11.8701ZM14.109 11.8701C13.185 11.8701 12.435 11.0131 12.435 9.95706C12.435 8.90106 13.184 8.04406 14.109 8.04406C15.033 8.04406 15.783 8.90106 15.783 9.95706C15.783 11.0131 15.033 11.8701 14.109 11.8701Z"
              fill="#777E91"/>
    </symbol>
    <symbol fill="none" xmlns="http://www.w3.org/2000/svg" viewBox="0 0 27 27" id="etherum-red">
        <g clip-path="url(#clip0)">
            <g opacity="0.6">
                <path opacity="0.6"
                      d="M13.8911 9.97021L6.91016 13.4901L13.8911 18.0626L20.8692 13.4901L13.8911 9.97021Z"
                      fill="#EF466F"/>
            </g>
            <g opacity="0.45">
                <path opacity="0.45" d="M6.91016 13.4898L13.8911 18.0623V0.648438L6.91016 13.4898Z" fill="#EF466F"/>
            </g>
            <g opacity="0.8">
                <path opacity="0.8" d="M13.8916 0.648438V18.0623L20.8698 13.4898L13.8916 0.648438Z" fill="#EF466F"/>
            </g>
            <g opacity="0.45">
                <path opacity="0.45" d="M6.91016 14.9565L13.8911 25.86V19.529L6.91016 14.9565Z" fill="#EF466F"/>
            </g>
            <g opacity="0.8">
                <path opacity="0.8" d="M13.8916 19.529V25.86L20.8752 14.9565L13.8916 19.529Z" fill="#EF466F"/>
            </g>
        </g>
        <defs>
            <clipPath id="clip0">
                <rect width="26" height="26" fill="white" transform="translate(0.875 0.5)"/>
            </clipPath>
        </defs>
    </symbol>
    <symbol fill="none" xmlns="http://www.w3.org/2000/svg" viewBox="0 0 18 18" id="facebook">
        <path d="M18.8571 3H5.14286C3.96 3 3 3.96 3 5.14286V18.8571C3 20.04 3.96 21 5.14286 21H18.8571C20.04 21 21 20.04 21 18.8571V5.14286C21 3.96 20.04 3 18.8571 3ZM17.1429 9.42857H16.2857C15.3686 9.42857 15 9.64286 15 10.2857V11.5714H17.1429L16.7143 13.7143H15V20.1429H12.8571V13.7143H11.1429V11.5714H12.8571V10.2857C12.8571 8.57143 13.7143 7.28571 15.4286 7.28571C16.6714 7.28571 17.1429 7.71429 17.1429 7.71429V9.42857Z"
              fill="#777E91"/>
    </symbol>
    <symbol fill="none" xmlns="http://www.w3.org/2000/svg" viewBox="0 0 18 18" id="instagram">
        <path d="M13 0H5C2.239 0 0 2.239 0 5V13C0 15.761 2.239 18 5 18H13C15.761 18 18 15.761 18 13V5C18 2.239 15.761 0 13 0ZM9 14C6.239 14 4 11.761 4 9C4 6.239 6.239 4 9 4C11.761 4 14 6.239 14 9C14 11.761 11.761 14 9 14ZM15 4C14.448 4 14 3.552 14 3C14 2.448 14.448 2 15 2C15.552 2 16 2.448 16 3C16 3.552 15.552 4 15 4Z"
              fill="#777E91"/>
    </symbol>
    <symbol fill="none" xmlns="http://www.w3.org/2000/svg" viewBox="0 0 27 25" id="swapp">
        <g clip-path="url(#clip0)">
            <path d="M5.69757 15.3449C4.54157 15.3449 3.40209 15.3615 2.24609 15.3615C2.11397 15.3615 1.98186 15.3615 1.89929 15.2126C1.61855 14.7164 1.32129 14.2202 1.1066 13.6744C0.693747 12.6324 0.875404 11.64 1.40386 10.7138C2.87363 8.117 4.37643 5.55333 5.8462 2.97311C6.72146 1.45145 8.0426 0.756774 9.76008 0.740234C12.551 0.740234 15.3584 0.740234 18.1493 0.740234C19.7512 0.740234 21.0393 1.33567 21.832 2.77463C21.9806 3.05581 22.1788 3.13851 22.4926 3.13851C23.3678 3.12197 24.2431 3.13851 25.1184 3.12197C25.4156 3.12197 25.5312 3.15505 25.333 3.48585C24.8706 4.24668 24.4248 5.02405 23.9954 5.80143C23.8468 6.06606 23.6816 6.14876 23.3844 6.14876C19.9164 6.13222 16.4484 6.13222 12.9804 6.14876C12.3858 6.14876 11.7913 6.1653 11.2464 6.44648C10.5858 6.77728 10.1729 7.32309 9.94174 8.01776C9.82179 8.17461 9.8835 8.13297 9.82179 8.17461C8.96305 9.66319 8.22403 11.2818 7.3818 12.7704C6.88638 13.6636 6.12694 14.4021 5.69757 15.3449Z"
                  fill="white"/>
            <path d="M19.0409 24.2104C18.9914 24.227 18.9419 24.227 18.8758 24.2435C18.8246 24.2435 18.8352 24.2435 18.7932 24.2435C17.1418 24.2435 15.5069 24.2435 13.8555 24.2435C13.872 24.1773 13.8555 24.0946 13.8885 24.045C14.7307 22.573 15.573 21.134 16.3987 19.6785C16.6629 19.2154 17.0097 18.7854 17.1418 18.2395C17.1748 18.2065 17.1913 18.1734 17.2244 18.1403C18.1327 17.0156 18.0336 15.8578 17.34 14.6669C16.7455 13.658 16.1675 12.6491 15.606 11.6401C14.9784 10.5485 15.4574 9.6719 16.7124 9.6719C19.6355 9.65536 22.5585 9.6719 25.4815 9.6719C25.7292 9.6719 25.8944 9.73806 26.01 9.96962C26.1256 10.2177 26.2742 10.4493 26.4063 10.6974C27.0834 11.9379 27.0834 13.1783 26.3733 14.4188C24.8705 17.0487 23.3677 19.6785 21.8319 22.2918C21.3034 23.2015 20.5437 23.8962 19.4538 24.1112C19.4186 24.1181 19.4098 24.1222 19.3877 24.1277C19.3217 24.1443 19.2721 24.1608 19.2061 24.1773C19.1055 24.2025 19.1294 24.1809 19.0409 24.2104Z"
                  fill="white"/>
            <path fill-rule="evenodd" clip-rule="evenodd"
                  d="M6.73339 13.4862C6.36927 14.0959 6.00585 14.7045 5.69765 15.3447C7.51451 15.3447 9.34759 15.361 11.1969 15.3774L11.2464 15.3778C11.6923 15.3778 12.1382 15.2455 12.3364 14.8651C12.5511 14.4185 12.5346 13.9388 12.2538 13.4592C11.8549 12.81 11.4801 12.1548 11.104 11.4972C10.8572 11.0657 10.6098 10.6333 10.3547 10.2008C9.95833 9.50616 9.90879 8.77841 9.95833 8.01758C9.87776 8.03103 9.84087 8.09916 9.80326 8.16861C9.79461 8.18457 9.78593 8.2006 9.77667 8.21606C8.91793 9.6881 8.05919 11.1767 7.21696 12.6653C7.05888 12.9411 6.89606 13.2137 6.73339 13.4862ZM16.6202 19.3149C16.8314 18.9795 17.0447 18.6406 17.1419 18.2392C16.4978 18.7519 15.7547 18.8842 14.929 18.9008C11.4114 18.9008 7.87737 18.9008 4.35984 18.8842C4.09561 18.8842 3.94698 18.9669 3.81487 19.1985C3.35247 20.0089 2.89007 20.8029 2.41116 21.6133C2.26253 21.8614 2.32859 21.9441 2.60933 21.9441C2.85055 21.9441 3.09042 21.9468 3.32971 21.9495C3.9259 21.9563 4.51849 21.963 5.11949 21.9276C5.59841 21.911 5.86263 22.0599 6.09383 22.4734C6.68835 23.4823 7.54709 24.1935 8.7196 24.2431C9.85297 24.2872 10.9937 24.2726 12.1368 24.2579C12.7093 24.2505 13.2824 24.2431 13.8555 24.2431C13.8555 24.177 13.8555 24.0943 13.8886 24.0447C14.7308 22.5892 15.573 21.1337 16.3987 19.6781C16.4686 19.5557 16.5443 19.4355 16.6202 19.3149Z"
                  fill="#C6CBCF"/>
        </g>
        <defs>
            <clipPath id="clip0">
                <rect width="26.0265" height="23.5197" fill="white" transform="translate(0.875 0.740234)"/>
            </clipPath>
        </defs>
    </symbol>
    <symbol fill="none" xmlns="http://www.w3.org/2000/svg" viewBox="0 0 22 21" id="telegram">
        <path d="M21.1456 1.14492C20.7856 0.839645 20.2202 0.795965 19.6355 1.03068H19.6346C19.0197 1.2774 2.22928 8.47932 1.54576 8.77356C1.42144 8.81676 0.335681 9.22188 0.447521 10.1243C0.547361 10.9379 1.42 11.2748 1.52656 11.3137L5.7952 12.7753C6.0784 13.718 7.1224 17.1961 7.35328 17.9392C7.49728 18.4024 7.732 19.011 8.14336 19.1363C8.50432 19.2755 8.86336 19.1483 9.09568 18.9659L11.7054 16.5452L15.9184 19.8308L16.0187 19.8908C16.3048 20.0176 16.5789 20.0809 16.8405 20.0809C17.0426 20.0809 17.2365 20.043 17.4218 19.9672C18.053 19.708 18.3054 19.1065 18.3318 19.0384L21.4787 2.6814C21.6707 1.8078 21.4038 1.36332 21.1456 1.14492ZM9.55984 13.36L8.11984 17.2L6.67984 12.4L17.7198 4.23996L9.55984 13.36Z"
              fill="#777E91"/>
    </symbol>
    <symbol fill="none" xmlns="http://www.w3.org/2000/svg" viewBox="0 0 24 20" id="twitter">
        <path d="M7.55016 19.75C16.6045 19.75 21.5583 12.2467 21.5583 5.74186C21.5583 5.53092 21.5536 5.3153 21.5442 5.10436C22.5079 4.40746 23.3395 3.54425 24 2.5553C23.1025 2.9546 22.1496 3.21538 21.1739 3.32874C22.2013 2.71291 22.9705 1.74547 23.3391 0.605767C22.3726 1.17856 21.3156 1.58261 20.2134 1.80061C19.4708 1.01156 18.489 0.489116 17.4197 0.314051C16.3504 0.138986 15.2532 0.32105 14.2977 0.832096C13.3423 1.34314 12.5818 2.15471 12.1338 3.14131C11.6859 4.12792 11.5754 5.23462 11.8195 6.2903C9.86249 6.19209 7.94794 5.6837 6.19998 4.7981C4.45203 3.91249 2.90969 2.66944 1.67297 1.14952C1.0444 2.23324 0.852057 3.51565 1.13503 4.73609C1.418 5.95654 2.15506 7.02345 3.19641 7.71999C2.41463 7.69517 1.64998 7.48468 0.965625 7.10592V7.16686C0.964925 8.30415 1.3581 9.40659 2.07831 10.2868C2.79852 11.167 3.80132 11.7706 4.91625 11.995C4.19206 12.1931 3.43198 12.222 2.69484 12.0794C3.00945 13.0574 3.62157 13.9129 4.44577 14.5263C5.26997 15.1398 6.26512 15.4806 7.29234 15.5012C5.54842 16.8711 3.39417 17.6141 1.17656 17.6106C0.783287 17.61 0.390399 17.5859 0 17.5384C2.25286 18.9837 4.87353 19.7514 7.55016 19.75Z"
              fill="#777E91"/>
    </symbol>
    <symbol fill="none" xmlns="http://www.w3.org/2000/svg" viewBox="0 0 18 18" id="clipboard">
        <path d="M15 4.5H6C5.17125 4.5 4.5 5.17125 4.5 6V15C4.5 15.8287 5.17125 16.5 6 16.5H15C15.8287 16.5 16.5 15.8287 16.5 15V6C16.5 5.17125 15.8287 4.5 15 4.5ZM15 15H6V6H15V15Z"
              fill="#777E91"/>
        <path d="M3 3H12.75C13.164 3 13.5 2.664 13.5 2.25C13.5 1.836 13.164 1.5 12.75 1.5H3C2.17125 1.5 1.5 2.17125 1.5 3V12.75C1.5 13.164 1.836 13.5 2.25 13.5C2.664 13.5 3 13.164 3 12.75V3Z"
              fill="#777E91"/>
    </symbol>
    <symbol fill="inherit" xmlns="http://www.w3.org/2000/svg" viewBox="0 0 24 24" id="arrow">
        <path d="M19.75 11.7261L4.75 11.7261" stroke="inherit" stroke-width="1.5" stroke-linecap="round"
              stroke-linejoin="round"/>
        <path d="M13.7002 5.70149L19.7502 11.7255L13.7002 17.7505" stroke="inherit" stroke-width="1.5"
              stroke-linecap="round" stroke-linejoin="round"/>
    </symbol>
    <symbol fill="none" xmlns="http://www.w3.org/2000/svg" viewBox="0 0 24 24" id="arrow-right">
        <path d="M19.75 11.7261L4.75 11.7261" stroke="#777E90" stroke-width="1.5" stroke-linecap="round"
              stroke-linejoin="round"/>
        <path d="M13.7002 5.70149L19.7502 11.7255L13.7002 17.7505" stroke="#777E90" stroke-width="1.5"
              stroke-linecap="round" stroke-linejoin="round"/>
    </symbol>
    <symbol fill="none" xmlns="http://www.w3.org/2000/svg" viewBox="0 0 24 24" id="arrow-left">
        <path d="M4.25 12.2739L19.25 12.2739" stroke="#777E90" stroke-width="1.5" stroke-linecap="round"
              stroke-linejoin="round"/>
        <path d="M10.2998 18.2985L4.2498 12.2745L10.2998 6.24951" stroke="#777E90" stroke-width="1.5"
              stroke-linecap="round" stroke-linejoin="round"/>
    </symbol>
    <symbol fill="none" xmlns="http://www.w3.org/2000/svg" viewBox="0 0 21 20" id="swap">
        <path d="M3.69677 14.0328L15.0449 14.0328" stroke="#FCFCFD" stroke-width="1.5" stroke-linecap="round"
              stroke-linejoin="round"/>
        <path d="M7.11035 17.4308L3.69646 14.0327L7.11035 10.6345" stroke="#FCFCFD" stroke-width="1.5"
              stroke-linecap="round" stroke-linejoin="round"/>
        <path d="M17.3062 5.75911L5.958 5.75911" stroke="#FCFCFD" stroke-width="1.5" stroke-linecap="round"
              stroke-linejoin="round"/>
        <path d="M13.8928 2.36108L17.3066 5.75923L13.8928 9.15738" stroke="#FCFCFD" stroke-width="1.5"
              stroke-linecap="round" stroke-linejoin="round"/>
    </symbol>
    <symbol fill="none" xmlns="http://www.w3.org/2000/svg" viewBox="0 0 20 20" id="tick">
        <path d="M5 10.0001L8.33427 13.3334L15 6.66675" stroke="#FCFCFD" stroke-width="2.5" stroke-linecap="round"
              stroke-linejoin="round"/>
    </symbol>
    <symbol fill="none" xmlns="http://www.w3.org/2000/svg" viewBox="0 0 20 20" id="heart">
        <path fill-rule="evenodd" clip-rule="evenodd"
              d="M9.801 17.3781C7.99216 16.2649 6.30942 14.9547 4.7829 13.471C3.70969 12.4025 2.89267 11.0998 2.39441 9.66282C1.49778 6.87525 2.5451 3.68402 5.4761 2.7396C7.01651 2.2437 8.69887 2.52713 9.99691 3.50123C11.2954 2.52831 12.9772 2.24498 14.5177 2.7396C17.4487 3.68402 18.5036 6.87525 17.6069 9.66282C17.1087 11.0998 16.2917 12.4025 15.2184 13.471C13.6919 14.9547 12.0092 16.2649 10.2003 17.3781L10.0044 17.5L9.801 17.3781Z"
              fill="white"/>
        <path d="M13.1162 5.87744C14.004 6.16103 14.6347 6.95803 14.7136 7.89576" stroke="#200E32" stroke-width="1.5"
              stroke-linecap="round" stroke-linejoin="round"/>
    </symbol>
    <symbol fill="none" xmlns="http://www.w3.org/2000/svg" viewBox="0 0 20 20" id="bag">
        <path fill-rule="evenodd" clip-rule="evenodd"
              d="M2.57228 13.5958L3.21303 8.43356C3.60337 6.59153 4.70811 5.8335 5.76129 5.8335H14.2236C15.2915 5.8335 16.433 6.53847 16.7645 8.43356L17.4126 13.5958C17.9429 17.386 15.9912 18.3335 13.4429 18.3335H6.53461C3.99371 18.3335 2.10093 16.9615 2.57228 13.5958ZM12.4192 10.124C12.826 10.124 13.1557 9.78462 13.1557 9.36597C13.1557 8.94732 12.826 8.60794 12.4192 8.60794C12.0124 8.60794 11.6827 8.94732 11.6827 9.36597C11.6827 9.78462 12.0124 10.124 12.4192 10.124ZM8.33163 9.36597C8.33163 9.78462 8.00189 10.124 7.59514 10.124C7.18839 10.124 6.85865 9.78462 6.85865 9.36597C6.85865 8.94732 7.18839 8.60794 7.59514 8.60794C8.00189 8.60794 8.33163 8.94732 8.33163 9.36597Z"
              fill="#FCFCFD"/>
        <path d="M5.85495 5.64535C5.85233 5.70999 5.86475 5.77435 5.89124 5.83341H7.08883C7.11202 5.77337 7.12431 5.70969 7.12512 5.64535C7.12512 4.04744 8.42495 2.75207 10.0284 2.75207C11.6318 2.75207 12.9316 4.04744 12.9316 5.64535C12.9207 5.70756 12.9207 5.7712 12.9316 5.83341H14.1583C14.1693 5.7712 14.1693 5.70756 14.1583 5.64535C14.0651 3.42167 12.229 1.66675 9.99572 1.66675C7.76243 1.66675 5.92637 3.42167 5.83317 5.64535H5.85495Z"
              fill="#FCFCFD"/>
    </symbol>
    <symbol fill="none" xmlns="http://www.w3.org/2000/svg" viewBox="0 0 24 24" id="tag">
        <path fill-rule="evenodd" clip-rule="evenodd"
              d="M11.9333 4.91124C11.6323 4.98649 11.3574 5.14214 11.138 5.36153L4.21028 12.2892C3.54174 12.9578 3.54174 14.0417 4.21028 14.7102L9.05227 19.5522C9.72081 20.2208 10.8047 20.2208 11.4733 19.5522L18.401 12.6245C18.6204 12.4051 18.776 12.1302 18.8513 11.8292L19.7117 8.38756C19.8575 7.80419 19.6866 7.18707 19.2614 6.76187L17.0006 4.50112C16.5754 4.07592 15.9583 3.90498 15.3749 4.05083L11.9333 4.91124ZM13.8941 9.86814C14.5627 10.5367 15.6466 10.5367 16.3151 9.86814C16.9837 9.1996 16.9837 8.11569 16.3151 7.44715C15.6466 6.77861 14.5627 6.77861 13.8941 7.44715C13.2256 8.11569 13.2256 9.1996 13.8941 9.86814Z"
              fill="white"/>
    </symbol>
    <symbol fill="none" xmlns="http://www.w3.org/2000/svg" viewBox="0 0 21 20" id="broken-bone">
        <g clip-path="url(#clip0)">
            <path d="M19.7666 3.44713C19.2998 2.9294 18.6605 2.60347 17.9802 2.51985C17.8966 1.83961 17.5707 1.20042 17.053 0.733503C15.9371 -0.272662 14.218 -0.239855 13.1394 0.808271C12.5846 1.34752 12.2759 2.07033 12.2702 2.84349C12.266 3.44789 12.4471 4.02391 12.7872 4.50761L9.33887 8.06042L11.5001 8L11.4487 10.2104L13.5312 10.2791L15.9926 7.71303C16.4765 8.05314 17.0527 8.2332 17.6566 8.22984C18.4299 8.2242 19.1527 7.91551 19.692 7.36055C20.7399 6.2819 20.7727 4.563 19.7666 3.44713Z"
                  fill="#FCFCFD"/>
            <path d="M9.83769 11.7702L9.89079 9.48706L7.73549 9.54718L5.00761 12.287C4.5294 11.9509 3.96132 11.7702 3.3647 11.7702C3.35768 11.7702 3.35066 11.7702 3.34364 11.7702C2.57048 11.7758 1.84752 12.0844 1.30827 12.6393C0.260145 13.718 0.227338 15.4369 1.2335 16.5528C1.70027 17.0706 2.33961 17.3966 3.01985 17.4802C3.10347 18.1604 3.4294 18.7996 3.94713 19.2665C4.49049 19.7565 5.17683 20 5.86256 20C6.58507 20 7.30726 19.7295 7.8607 19.1916C8.41566 18.6525 8.72435 17.9296 8.72984 17.1564C8.73411 16.5523 8.55314 15.9763 8.21303 15.4924L11.8567 11.8368L9.83769 11.7702Z"
                  fill="#FCFCFD"/>
        </g>
        <defs>
            <clipPath id="clip0">
                <rect width="20" height="20" fill="white" transform="translate(0.5)"/>
            </clipPath>
        </defs>
    </symbol>
    <symbol fill="none" xmlns="http://www.w3.org/2000/svg" viewBox="0 0 14 14" id="buy">
        <path fill-rule="evenodd" clip-rule="evenodd"
              d="M3.94781 12.2136C4.22914 12.2136 4.45781 12.4423 4.45781 12.7236C4.45781 13.005 4.22914 13.233 3.94781 13.233C3.66648 13.233 3.43848 13.005 3.43848 12.7236C3.43848 12.4423 3.66648 12.2136 3.94781 12.2136Z"
              stroke="#FCFCFD" stroke-linecap="round" stroke-linejoin="round"/>
        <path fill-rule="evenodd" clip-rule="evenodd"
              d="M11.4495 12.2136C11.7308 12.2136 11.9595 12.4423 11.9595 12.7236C11.9595 13.005 11.7308 13.233 11.4495 13.233C11.1681 13.233 10.9395 13.005 10.9395 12.7236C10.9395 12.4423 11.1681 12.2136 11.4495 12.2136Z"
              stroke="#FCFCFD" stroke-linecap="round" stroke-linejoin="round"/>
        <path d="M0.833008 1.16675L2.21967 1.40675L2.86167 9.05541C2.91367 9.67875 3.43434 10.1574 4.05967 10.1574H11.3343C11.9317 10.1574 12.4383 9.71875 12.5243 9.12675L13.157 4.75475C13.235 4.21541 12.817 3.73275 12.2723 3.73275H2.44234"
              stroke="#FCFCFD" stroke-linecap="round" stroke-linejoin="round"/>
        <path d="M8.4165 6.19686H10.2652" stroke="#FCFCFD" stroke-linecap="round" stroke-linejoin="round"/>
    </symbol>
    <symbol width="50" height="50" viewBox="0 0 50 50" fill="none" xmlns="http://www.w3.org/2000/svg" id="master">
        <path d="M33.3333 10.4167C31.4182 10.4167 29.5219 10.794 27.7525 11.5268C25.9832 12.2597 24.3755 13.3339 23.0214 14.6881C21.6672 16.0423 20.593 17.6499 19.8601 19.4193C19.1272 21.1886 18.75 23.085 18.75 25.0001C18.75 26.9152 19.1272 28.8116 19.8601 30.5809C20.593 32.3502 21.6672 33.9579 23.0214 35.3121C24.3755 36.6662 25.9832 37.7404 27.7525 38.4733C29.5219 39.2062 31.4182 39.5834 33.3333 39.5834C35.2484 39.5834 37.1448 39.2062 38.9141 38.4733C40.6835 37.7404 42.2911 36.6662 43.6453 35.3121C44.9995 33.9579 46.0737 32.3502 46.8066 30.5809C47.5395 28.8116 47.9167 26.9152 47.9167 25.0001C47.9167 23.085 47.5395 21.1886 46.8066 19.4193C46.0737 17.6499 44.9995 16.0423 43.6453 14.6881C42.2911 13.3339 40.6835 12.2597 38.9141 11.5268C37.1448 10.794 35.2484 10.4167 33.3333 10.4167Z"
              fill="#FF9800"/>
        <path d="M16.6673 10.4167C14.7522 10.4167 12.8558 10.794 11.0865 11.5268C9.31719 12.2597 7.70953 13.3339 6.35534 14.6881C5.00116 16.0423 3.92696 17.6499 3.19407 19.4193C2.46119 21.1886 2.08398 23.085 2.08398 25.0001C2.08398 26.9152 2.46119 28.8116 3.19407 30.5809C3.92696 32.3502 5.00116 33.9579 6.35534 35.3121C7.70953 36.6662 9.31719 37.7404 11.0865 38.4733C12.8558 39.2062 14.7522 39.5834 16.6673 39.5834C18.5824 39.5834 20.4788 39.2062 22.2481 38.4733C24.0174 37.7404 25.6251 36.6662 26.9793 35.3121C28.3335 33.9579 29.4077 32.3502 30.1406 30.5809C30.8734 28.8116 31.2507 26.9152 31.2507 25.0001C31.2507 23.085 30.8734 21.1886 30.1406 19.4193C29.4077 17.6499 28.3335 16.0423 26.9793 14.6881C25.6251 13.3339 24.0174 12.2597 22.2481 11.5268C20.4788 10.794 18.5824 10.4167 16.6673 10.4167Z"
              fill="#D50000"/>
        <path d="M18.75 25.0001C18.75 29.9532 21.225 34.323 25 36.9584C28.775 34.323 31.25 29.9532 31.25 25.0001C31.25 20.047 28.775 15.6772 25 13.0417C21.225 15.6772 18.75 20.047 18.75 25.0001Z"
              fill="#FF3D00"/>
    </symbol>
    <symbol fill="none" xmlns="http://www.w3.org/2000/svg" viewBox="0 0 17 16" id="arrow-down">
        <path d="M12.6927 5.66663L8.02604 10.3333L3.35938 5.66663" stroke="inherit" stroke-width="1.5"
              stroke-linecap="round" stroke-linejoin="round"/>
    </symbol>
    <symbol fill="none" xmlns="http://www.w3.org/2000/svg" viewBox="0 0 18 18" id="user-plus">
        <path fill-rule="evenodd" clip-rule="evenodd"
              d="M7.23213 11.6719C4.0288 11.6719 1.29297 12.156 1.29297 14.096C1.29297 16.0352 4.0113 16.5377 7.23213 16.5377C10.4355 16.5377 13.1713 16.0527 13.1713 14.1135C13.1713 12.1744 10.453 11.6719 7.23213 11.6719Z"
              stroke="white" stroke-width="1.5" stroke-linecap="round" stroke-linejoin="round"/>
        <path fill-rule="evenodd" clip-rule="evenodd"
              d="M7.23245 8.90484C9.34578 8.90484 11.0391 7.21067 11.0391 5.09817C11.0391 2.98484 9.34578 1.2915 7.23245 1.2915C5.11995 1.2915 3.42578 2.98484 3.42578 5.09817C3.42578 7.21067 5.11995 8.90484 7.23245 8.90484Z"
              stroke="white" stroke-width="1.5" stroke-linecap="round" stroke-linejoin="round"/>
        <path d="M15.0026 6.22412V9.56579" stroke="white" stroke-width="1.5" stroke-linecap="round"
              stroke-linejoin="round"/>
        <path d="M16.7091 7.89494H13.3008" stroke="white" stroke-width="1.5" stroke-linecap="round"
              stroke-linejoin="round"/>
    </symbol>
    <symbol fill="none" xmlns="http://www.w3.org/2000/svg" viewBox="0 0 24 24" id="shield_fail">
        <path fill-rule="evenodd" clip-rule="evenodd"
              d="M18.865 5.12352C19.302 5.27652 19.594 5.68852 19.594 6.15152V12.9245C19.594 14.8175 18.905 16.6245 17.691 18.0245C17.079 18.7295 16.307 19.2785 15.486 19.7225L11.928 21.6445L8.364 19.7215C7.541 19.2775 6.768 18.7295 6.156 18.0235C4.94 16.6235 4.25 14.8155 4.25 12.9205V6.15152C4.25 5.68852 4.542 5.27652 4.979 5.12352L11.561 2.81052C11.795 2.72852 12.05 2.72852 12.283 2.81052L18.865 5.12352Z"
              stroke="#777E90" stroke-width="1.5" stroke-linecap="round" stroke-linejoin="round"/>
        <path d="M13.801 13.8459L10.043 10.0879" stroke="#777E90" stroke-width="1.5" stroke-linecap="round"
              stroke-linejoin="round"/>
        <path d="M10.043 13.8459L13.801 10.0879" stroke="#777E90" stroke-width="1.5" stroke-linecap="round"
              stroke-linejoin="round"/>
    </symbol>
    <symbol fill="none" xmlns="http://www.w3.org/2000/svg" viewBox="0 0 24 24" id="share1">
        <path d="M16.6667 4C15.3872 4 14.3333 5.08399 14.3333 6.4C14.3333 6.55276 14.3503 6.7017 14.3774 6.84688L8.82813 10.1766C8.42109 9.82228 7.90273 9.6 7.33333 9.6C6.05388 9.6 5 10.684 5 12C5 13.316 6.05388 14.4 7.33333 14.4C7.90273 14.4 8.42109 14.1777 8.82813 13.8234L14.3774 17.1516C14.3501 17.2972 14.3333 17.4467 14.3333 17.6C14.3333 18.916 15.3872 20 16.6667 20C17.9461 20 19 18.916 19 17.6C19 16.284 17.9461 15.2 16.6667 15.2C16.0969 15.2 15.579 15.4235 15.1719 15.7781L9.62261 12.4469C9.64972 12.3017 9.66667 12.1528 9.66667 12C9.66667 11.8472 9.64972 11.6983 9.62261 11.5531L15.1719 8.22344C15.5789 8.57772 16.0973 8.8 16.6667 8.8C17.9461 8.8 19 7.71601 19 6.4C19 5.08399 17.9461 4 16.6667 4ZM16.6667 5.6C17.1054 5.6 17.4444 5.9487 17.4444 6.4C17.4444 6.8513 17.1054 7.2 16.6667 7.2C16.2279 7.2 15.8889 6.8513 15.8889 6.4C15.8889 5.9487 16.2279 5.6 16.6667 5.6ZM7.33333 11.2C7.7721 11.2 8.11111 11.5487 8.11111 12C8.11111 12.4513 7.7721 12.8 7.33333 12.8C6.89457 12.8 6.55556 12.4513 6.55556 12C6.55556 11.5487 6.89457 11.2 7.33333 11.2ZM16.6667 16.8C17.1054 16.8 17.4444 17.1487 17.4444 17.6C17.4444 18.0513 17.1054 18.4 16.6667 18.4C16.2279 18.4 15.8889 18.0513 15.8889 17.6C15.8889 17.1487 16.2279 16.8 16.6667 16.8Z"
              fill="#777E90"/>
    </symbol>
    <symbol fill="none" xmlns="http://www.w3.org/2000/svg" viewBox="0 0 18 18" id="verified_account">
        <path d="M16.5 9C16.5 7.90912 15.8801 6.957 14.9753 6.47625C15.2224 5.53462 14.9816 4.48762 14.2466 3.753C13.698 3.204 12.975 2.931 12.2513 2.931C12.0064 2.931 11.7615 2.96212 11.5234 3.02475C11.043 2.11987 10.0909 1.5 9 1.5C7.90913 1.5 6.957 2.11987 6.47625 3.02475C6.23775 2.96212 5.99325 2.931 5.74838 2.931C5.02463 2.931 4.302 3.20437 3.753 3.753C3.01838 4.48762 2.77725 5.53425 3.02437 6.47625C2.11987 6.957 1.5 7.90912 1.5 9C1.5 10.0909 2.11988 11.043 3.02475 11.5237C2.77763 12.4654 3.01837 13.5124 3.75338 14.247C4.302 14.7956 5.025 15.069 5.74875 15.069C5.99363 15.069 6.2385 15.0379 6.47663 14.9752C6.957 15.8801 7.90913 16.5 9 16.5C10.0909 16.5 11.043 15.8801 11.5238 14.9752C11.7622 15.0379 12.0068 15.069 12.2516 15.069C12.9754 15.069 13.698 14.7956 14.247 14.247C14.9816 13.5124 15.2228 12.4657 14.9756 11.5237C15.8801 11.043 16.5 10.0909 16.5 9Z"
              fill="white"/>
        <path d="M8.249 12.3109L5.46875 9.53023L6.52925 8.46973L8.249 10.1891L11.8438 6.59473L12.9043 7.65523L8.249 12.3109Z"
              fill="#0FC0CB"/>
    </symbol>
    <symbol fill="none" xmlns="http://www.w3.org/2000/svg" viewBox="0 0 20 20" id="delete">
        <path d="M16.9215 7.46777C16.9215 7.46777 16.3785 14.2028 16.0635 17.0398C15.9135 18.3948 15.0765 19.1888 13.7055 19.2138C11.0965 19.2608 8.48447 19.2638 5.87647 19.2088C4.55747 19.1818 3.73447 18.3778 3.58747 17.0468C3.27047 14.1848 2.73047 7.46777 2.73047 7.46777"
              stroke="inherit" stroke-width="1.5" stroke-linecap="round" stroke-linejoin="round"/>
        <path d="M18.3057 4.23926H1.34766" stroke="inherit" stroke-width="1.5" stroke-linecap="round"
              stroke-linejoin="round"/>
        <path d="M15.0363 4.23949C14.2513 4.23949 13.5753 3.68449 13.4213 2.91549L13.1783 1.69949C13.0283 1.13849 12.5203 0.750488 11.9413 0.750488H7.70828C7.12928 0.750488 6.62128 1.13849 6.47128 1.69949L6.22828 2.91549C6.07428 3.68449 5.39828 4.23949 4.61328 4.23949"
              stroke="inherit" stroke-width="1.5" stroke-linecap="round" stroke-linejoin="round"/>
    </symbol>
    <symbol fill="none" xmlns="http://www.w3.org/2000/svg" viewBox="0 0 21 22" id="setting1">
        <path fill-rule="evenodd" clip-rule="evenodd"
              d="M19.2039 6.62337L18.5814 5.54328C18.0549 4.62936 16.8879 4.31408 15.9728 4.83847V4.83847C15.5371 5.0951 15.0173 5.16791 14.5279 5.04084C14.0385 4.91378 13.6198 4.59727 13.3641 4.16113C13.1995 3.8839 13.1111 3.56815 13.1078 3.2458V3.2458C13.1226 2.72898 12.9276 2.22816 12.5672 1.85743C12.2069 1.48669 11.7118 1.27762 11.1947 1.27783H9.94072C9.43418 1.27783 8.94853 1.47967 8.59122 1.8387C8.2339 2.19773 8.03439 2.68435 8.03683 3.19088V3.19088C8.02181 4.23668 7.1697 5.07657 6.12378 5.07646C5.80143 5.07311 5.48567 4.9847 5.20845 4.82017V4.82017C4.29328 4.29577 3.12633 4.61105 2.59976 5.52497L1.93156 6.62337C1.40563 7.53615 1.71662 8.70236 2.62722 9.23207V9.23207C3.21912 9.5738 3.58375 10.2053 3.58375 10.8888C3.58375 11.5723 3.21912 12.2038 2.62722 12.5456V12.5456C1.71777 13.0717 1.40644 14.2351 1.93156 15.1451V15.1451L2.56314 16.2344C2.80986 16.6795 3.22382 17.0081 3.71341 17.1472C4.203 17.2863 4.72786 17.2247 5.17184 16.9758V16.9758C5.6083 16.7211 6.12841 16.6513 6.61656 16.782C7.10471 16.9126 7.52045 17.2328 7.77138 17.6714C7.93591 17.9486 8.02433 18.2644 8.02767 18.5868V18.5868C8.02767 19.6433 8.88417 20.4998 9.94072 20.4998H11.1947C12.2477 20.4998 13.1027 19.6489 13.1078 18.5959V18.5959C13.1053 18.0878 13.3061 17.5998 13.6654 17.2405C14.0247 16.8812 14.5127 16.6804 15.0208 16.6829C15.3424 16.6915 15.6568 16.7795 15.9361 16.9392V16.9392C16.8489 17.4651 18.0151 17.1541 18.5448 16.2435V16.2435L19.2039 15.1451C19.459 14.7073 19.529 14.1858 19.3984 13.6961C19.2678 13.2065 18.9475 12.7891 18.5082 12.5364V12.5364C18.069 12.2837 17.7486 11.8663 17.618 11.3767C17.4875 10.8871 17.5575 10.3656 17.8126 9.92772C17.9785 9.63809 18.2186 9.39795 18.5082 9.23207V9.23207C19.4134 8.70265 19.7236 7.54325 19.2039 6.63252V6.63252V6.62337Z"
              stroke="inherit" stroke-width="1.5" stroke-linecap="round" stroke-linejoin="round"/>
        <circle cx="10.5737" cy="10.8886" r="2.63616" stroke="inherit" stroke-width="1.5" stroke-linecap="round"
                stroke-linejoin="round"/>
    </symbol>
    <symbol fill="none" xmlns="http://www.w3.org/2000/svg" viewBox="0 0 22 20" id="message">
        <path d="M16.4658 7.06104L12.2004 10.4953C11.3932 11.1282 10.2616 11.1282 9.4544 10.4953L5.15234 7.06104"
              stroke="#777E90" stroke-width="1.5" stroke-linecap="round" stroke-linejoin="round"/>
        <path fill-rule="evenodd" clip-rule="evenodd"
              d="M6.08709 1.5H15.515C16.8744 1.51525 18.1682 2.08993 19.0952 3.0902C20.0222 4.09048 20.5014 5.42903 20.4212 6.79412V13.322C20.5014 14.6871 20.0222 16.0256 19.0952 17.0259C18.1682 18.0262 16.8744 18.6009 15.515 18.6161H6.08709C3.16718 18.6161 1.19922 16.2407 1.19922 13.322V6.79412C1.19922 3.87545 3.16718 1.5 6.08709 1.5Z"
              stroke="#777E90" stroke-width="1.5" stroke-linecap="round" stroke-linejoin="round"/>
    </symbol>
    <symbol fill="none" xmlns="http://www.w3.org/2000/svg" viewBox="0 0 20 20" id="time-circle">
        <path fill-rule="evenodd" clip-rule="evenodd"
              d="M19.25 10.0005C19.25 15.1095 15.109 19.2505 10 19.2505C4.891 19.2505 0.75 15.1095 0.75 10.0005C0.75 4.89149 4.891 0.750488 10 0.750488C15.109 0.750488 19.25 4.89149 19.25 10.0005Z"
              stroke="white" stroke-width="1.5" stroke-linecap="round" stroke-linejoin="round"/>
        <path d="M13.4302 12.9429L9.66016 10.6939V5.84692" stroke="white" stroke-width="1.5" stroke-linecap="round"
              stroke-linejoin="round"/>
    </symbol>
    <symbol fill="none" xmlns="http://www.w3.org/2000/svg" viewBox="0 0 20 22" id="calender">
        <path d="M1.09375 8.40421H18.9177" stroke="white" stroke-width="1.5" stroke-linecap="round"
              stroke-linejoin="round"/>
        <path d="M14.4429 12.3097H14.4522" stroke="white" stroke-width="1.5" stroke-linecap="round"
              stroke-linejoin="round"/>
        <path d="M10.0054 12.3097H10.0147" stroke="white" stroke-width="1.5" stroke-linecap="round"
              stroke-linejoin="round"/>
        <path d="M5.55622 12.3097H5.56549" stroke="white" stroke-width="1.5" stroke-linecap="round"
              stroke-linejoin="round"/>
        <path d="M14.4429 16.1962H14.4522" stroke="white" stroke-width="1.5" stroke-linecap="round"
              stroke-linejoin="round"/>
        <path d="M10.0054 16.1962H10.0147" stroke="white" stroke-width="1.5" stroke-linecap="round"
              stroke-linejoin="round"/>
        <path d="M5.55622 16.1962H5.56549" stroke="white" stroke-width="1.5" stroke-linecap="round"
              stroke-linejoin="round"/>
        <path d="M14.0452 1V4.29078" stroke="white" stroke-width="1.5" stroke-linecap="round" stroke-linejoin="round"/>
        <path d="M5.96711 1V4.29078" stroke="white" stroke-width="1.5" stroke-linecap="round" stroke-linejoin="round"/>
        <path fill-rule="evenodd" clip-rule="evenodd"
              d="M14.2383 2.5791H5.77096C2.83427 2.5791 1 4.21504 1 7.22213V16.2718C1 19.3261 2.83427 20.9999 5.77096 20.9999H14.229C17.175 20.9999 19 19.3545 19 16.3474V7.22213C19.0092 4.21504 17.1842 2.5791 14.2383 2.5791Z"
              stroke="white" stroke-width="1.5" stroke-linecap="round" stroke-linejoin="round"/>
    </symbol>
    <symbol fill="none" xmlns="http://www.w3.org/2000/svg" viewBox="0 0 20 20" id="bag-filled">
        <path fill-rule="evenodd" clip-rule="evenodd"
              d="M2.57228 13.5953L3.21303 8.43307C3.60337 6.59104 4.70811 5.83301 5.76129 5.83301H14.2236C15.2915 5.83301 16.433 6.53798 16.7645 8.43307L17.4126 13.5953C17.9429 17.3855 15.9912 18.333 13.4429 18.333H6.53461C3.99371 18.333 2.10093 16.961 2.57228 13.5953ZM12.4191 10.1235C12.8259 10.1235 13.1556 9.78409 13.1556 9.36544C13.1556 8.94679 12.8259 8.60741 12.4191 8.60741C12.0124 8.60741 11.6826 8.94679 11.6826 9.36544C11.6826 9.78409 12.0124 10.1235 12.4191 10.1235ZM8.33163 9.36544C8.33163 9.78409 8.00189 10.1235 7.59514 10.1235C7.18839 10.1235 6.85865 9.78409 6.85865 9.36544C6.85865 8.94679 7.18839 8.60741 7.59514 8.60741C8.00189 8.60741 8.33163 8.94679 8.33163 9.36544Z"
              fill="#FCFCFD"/>
        <path d="M5.85641 5.64511C5.8538 5.70974 5.86622 5.77411 5.8927 5.83317H7.09029C7.11349 5.77312 7.12578 5.70944 7.12659 5.64511C7.12659 4.04719 8.42642 2.75182 10.0298 2.75182C11.6333 2.75182 12.9331 4.04719 12.9331 5.64511C12.9221 5.70732 12.9221 5.77096 12.9331 5.83317H14.1597C14.1707 5.77096 14.1707 5.70732 14.1597 5.64511C14.0665 3.42143 12.2305 1.6665 9.99718 1.6665C7.76389 1.6665 5.92783 3.42143 5.83464 5.64511H5.85641Z"
              fill="#FCFCFD"/>
    </symbol>

    <symbol viewBox="0 0 20 20" fill="none" xmlns="http://www.w3.org/2000/svg" id="heart-full">
        <path fill-rule="evenodd" clip-rule="evenodd"
              d="M9.79954 17.3781C7.9907 16.2649 6.30796 14.9547 4.78144 13.471C3.70823 12.4025 2.8912 11.0998 2.39295 9.66282C1.49632 6.87525 2.54364 3.68402 5.47463 2.7396C7.01504 2.2437 8.69741 2.52713 9.99544 3.50123C11.294 2.52831 12.9757 2.24498 14.5163 2.7396C17.4472 3.68402 18.5021 6.87525 17.6055 9.66282C17.1072 11.0998 16.2902 12.4025 15.217 13.471C13.6905 14.9547 12.0077 16.2649 10.1989 17.3781L10.003 17.5L9.79954 17.3781Z"
              fill="white"/>
        <path d="M13.1133 5.87744C14.001 6.16103 14.6318 6.95803 14.7106 7.89576" stroke="#200E32" stroke-width="1.5"
              stroke-linecap="round" stroke-linejoin="round"/>
    </symbol>

    <symbol viewBox="0 0 21 20" fill="none" xmlns="http://www.w3.org/2000/svg" id="data-transfer">
        <path d="M17.7842 5.46506L15.5217 3.15134C15.2031 2.82629 14.6623 3.05954 14.6623 3.52154V4.49518H4.45779C3.65236 4.49518 3 5.1686 3 6.00004C3 6.83147 3.65236 7.5049 4.45779 7.5049H14.6623V8.47854C14.6623 8.94129 15.2031 9.17379 15.5209 8.84798L17.7834 6.53426C18.0721 6.24006 18.0721 5.76001 17.7842 5.46506Z"
              fill="white"/>
        <path d="M3.21594 14.5343L5.47853 16.8481C5.79707 17.174 6.3372 16.9407 6.3372 16.4787V15.505H16.5421C17.3476 15.505 18 14.8315 18 14.0001C18 13.1686 17.3476 12.4952 16.5421 12.4952H6.3372V11.5215C6.3372 11.0587 5.79634 10.8262 5.47853 11.152L3.21594 13.4658C2.92802 13.76 2.92802 14.2401 3.21594 14.5343Z"
              fill="white"/>
    </symbol>

    <symbol viewBox="0 0 20 20" fill="none" xmlns="http://www.w3.org/2000/svg" id="auction">
        <path d="M10.6536 1.32695C10.4804 1.33211 10.3161 1.4045 10.1953 1.52877L6.19531 5.52877C6.13133 5.5902 6.08025 5.66378 6.04506 5.7452C6.00987 5.82662 5.99128 5.91424 5.99038 6.00294C5.98947 6.09163 6.00628 6.17961 6.03981 6.26173C6.07333 6.34385 6.12291 6.41845 6.18562 6.48117C6.24834 6.54389 6.32295 6.59346 6.40506 6.62699C6.48718 6.66051 6.57516 6.67732 6.66386 6.67642C6.75255 6.67551 6.84017 6.65692 6.92159 6.62173C7.00301 6.58654 7.07659 6.53546 7.13802 6.47148L11.138 2.47148C11.2344 2.37784 11.3002 2.25728 11.3268 2.1256C11.3534 1.99392 11.3397 1.85726 11.2873 1.73354C11.235 1.60982 11.1464 1.5048 11.0334 1.43224C10.9203 1.35969 10.7879 1.32299 10.6536 1.32695ZM12 3.33346C11.9115 3.33347 11.8239 3.35109 11.7423 3.38529C11.6607 3.4195 11.5868 3.4696 11.5247 3.53268L8.21875 6.84127C8.15006 6.90358 8.09512 6.97954 8.05746 7.06429C8.01979 7.14904 8.00022 7.24072 8 7.33346C7.9999 7.43067 8.02106 7.52673 8.06199 7.6149C8.10293 7.70307 8.16265 7.78122 8.23698 7.84388L12.1901 11.7996C12.2522 11.8631 12.3263 11.9135 12.4082 11.9479C12.49 11.9824 12.5779 12.0001 12.6667 12.0001C12.7545 12.0001 12.8415 11.9827 12.9226 11.949C13.0037 11.9153 13.0774 11.8658 13.1393 11.8035L16.4648 8.47799C16.5287 8.41587 16.5795 8.34157 16.6141 8.25949C16.6488 8.17742 16.6667 8.08922 16.6667 8.00013C16.6667 7.91165 16.649 7.82406 16.6148 7.74247C16.5806 7.66087 16.5305 7.5869 16.4674 7.52487L12.4779 3.53528C12.4753 3.53266 12.4727 3.53005 12.4701 3.52747C12.3452 3.40324 12.1762 3.33349 12 3.33346ZM17.987 8.66028C17.8138 8.66544 17.6494 8.73783 17.5286 8.86211L13.5286 12.8621C13.4647 12.9235 13.4136 12.9971 13.3784 13.0785C13.3432 13.16 13.3246 13.2476 13.3237 13.3363C13.3228 13.425 13.3396 13.5129 13.3731 13.5951C13.4067 13.6772 13.4562 13.7518 13.519 13.8145C13.5817 13.8772 13.6563 13.9268 13.7384 13.9603C13.8205 13.9939 13.9085 14.0107 13.9972 14.0098C14.0859 14.0089 14.1735 13.9903 14.2549 13.9551C14.3363 13.9199 14.4099 13.8688 14.4714 13.8048L18.4714 9.80481C18.5677 9.71117 18.6335 9.59061 18.6601 9.45893C18.6868 9.32725 18.673 9.1906 18.6206 9.06687C18.5683 8.94315 18.4798 8.83813 18.3667 8.76558C18.2536 8.69302 18.1213 8.65632 17.987 8.66028ZM8.86198 10.1954L2.51432 15.616C2.35435 15.7405 2.22488 15.8999 2.13576 16.082C2.04664 16.2641 2.00021 16.4641 2 16.6668C2 17.0204 2.14048 17.3596 2.39052 17.6096C2.64057 17.8596 2.97971 18.0001 3.33333 18.0001C3.53205 18.0001 3.72824 17.9557 3.90757 17.87C4.0869 17.7844 4.24482 17.6598 4.36979 17.5053C4.37197 17.5027 4.37414 17.5001 4.3763 17.4975L4.3776 17.4962L9.80469 11.1381L8.86198 10.1954Z"
              fill="white"/>
    </symbol>

    <symbol viewBox="0 0 21 20" fill="none" xmlns="http://www.w3.org/2000/svg" id="invite">
        <path d="M10.5013 2.5C10.3915 2.5 10.2817 2.52956 10.1823 2.58789L3.12744 6.80827C2.91202 6.93743 2.72964 7.10804 2.58464 7.30387L10.5013 11.1792L18.4172 7.30387C18.2722 7.10804 18.0906 6.93743 17.8752 6.80827L10.8203 2.58789C10.7209 2.52956 10.6111 2.5 10.5013 2.5ZM10.5013 4.16667C10.8463 4.16667 11.1263 4.44667 11.1263 4.79167V6.04167H12.3763C12.7213 6.04167 13.0013 6.32167 13.0013 6.66667C13.0013 7.01167 12.7213 7.29167 12.3763 7.29167H11.1263V8.54167C11.1263 8.88667 10.8463 9.16667 10.5013 9.16667C10.1563 9.16667 9.8763 8.88667 9.8763 8.54167V7.29167H8.6263C8.2813 7.29167 8.0013 7.01167 8.0013 6.66667C8.0013 6.32167 8.2813 6.04167 8.6263 6.04167H9.8763V4.79167C9.8763 4.44667 10.1563 4.16667 10.5013 4.16667ZM2.16797 9V14.7917C2.16797 16.2833 3.38464 17.5 4.8763 17.5H16.1263C17.618 17.5 18.8346 16.2833 18.8346 14.7917V9L10.7764 12.9209C10.6889 12.9626 10.593 12.9836 10.5013 12.9836C10.4096 12.9836 10.3137 12.9626 10.2262 12.9209L2.16797 9Z"
              fill="#FCFCFD"/>
    </symbol>

    <symbol viewBox="0 0 24 24" fill="none" xmlns="http://www.w3.org/2000/svg" id="timer">
        <path fill-rule="evenodd" clip-rule="evenodd"
              d="M21.25 12.0005C21.25 17.1095 17.109 21.2505 12 21.2505C6.891 21.2505 2.75 17.1095 2.75 12.0005C2.75 6.89149 6.891 2.75049 12 2.75049C17.109 2.75049 21.25 6.89149 21.25 12.0005Z"
              stroke="#FCFCFD" stroke-width="1.5" stroke-linecap="round" stroke-linejoin="round"/>
        <path d="M15.4316 14.9429L11.6616 12.6939V7.84692" stroke="#FCFCFD" stroke-width="1.5" stroke-linecap="round"
              stroke-linejoin="round"/>
    </symbol>

</svg>
