<svg width="22" height="18" viewBox="0 0 22 18" fill="none" xmlns="http://www.w3.org/2000/svg">
<path d="M18.952 2.67206C17.048 1.14106 14.036 0.882056 13.908 0.871056C13.707 0.854056 13.516 0.968056 13.434 1.15206C13.428 1.16406 13.362 1.31506 13.289 1.55006C14.548 1.76206 16.095 2.19006 17.495 3.05906C17.719 3.19806 17.788 3.49306 17.649 3.71806C17.559 3.86406 17.402 3.94406 17.242 3.94406C17.156 3.94406 17.069 3.92106 16.99 3.87206C14.584 2.38006 11.578 2.30506 11 2.30506C10.422 2.30506 7.415 2.38006 5.011 3.87206C4.786 4.01206 4.492 3.94206 4.352 3.71806C4.212 3.49306 4.282 3.19906 4.506 3.05906C5.906 2.19106 7.452 1.76206 8.712 1.55006C8.638 1.31406 8.572 1.16406 8.567 1.15206C8.484 0.968056 8.294 0.852056 8.092 0.872056C7.965 0.882056 4.953 1.14106 3.023 2.69406C2.015 3.62506 0 9.07306 0 13.7831C0 13.8661 0.022 13.9481 0.063 14.0201C1.454 16.4631 5.248 17.1031 6.113 17.1311C6.118 17.1311 6.123 17.1311 6.128 17.1311C6.281 17.1311 6.425 17.0581 6.515 16.9341L7.39 15.7321C5.031 15.1221 3.826 14.0871 3.756 14.0261C3.558 13.8511 3.539 13.5491 3.714 13.3511C3.889 13.1531 4.19 13.1341 4.388 13.3081C4.417 13.3341 6.636 15.2171 11 15.2171C15.372 15.2171 17.591 13.3261 17.613 13.3071C17.811 13.1351 18.113 13.1531 18.287 13.3521C18.461 13.5501 18.442 13.8511 18.245 14.0251C18.175 14.0871 16.97 15.1211 14.611 15.7311L15.486 16.9331C15.576 17.0571 15.72 17.1301 15.873 17.1301C15.878 17.1301 15.883 17.1301 15.888 17.1301C16.753 17.1031 20.547 16.4631 21.938 14.0191C21.978 13.9471 22 13.8661 22 13.7831C22 9.07306 19.985 3.62506 18.952 2.67206ZM7.891 11.8701C6.967 11.8701 6.217 11.0131 6.217 9.95706C6.217 8.90106 6.966 8.04406 7.891 8.04406C8.816 8.04406 9.565 8.90106 9.565 9.95706C9.565 11.0131 8.816 11.8701 7.891 11.8701ZM14.109 11.8701C13.185 11.8701 12.435 11.0131 12.435 9.95706C12.435 8.90106 13.184 8.04406 14.109 8.04406C15.033 8.04406 15.783 8.90106 15.783 9.95706C15.783 11.0131 15.033 11.8701 14.109 11.8701Z" fill="#777E91"/>
</svg>
