<svg width="16" height="16" viewBox="0 0 16 16" fill="none" xmlns="http://www.w3.org/2000/svg">
<path fill-rule="evenodd" clip-rule="evenodd" d="M7.9987 2.66659C6.69721 2.66659 5.49747 2.77392 4.5345 2.9011C3.66785 3.01556 3.01434 3.66907 2.89988 4.53572C2.7727 5.49869 2.66536 6.69843 2.66536 7.99992C2.66536 9.30141 2.7727 10.5011 2.89988 11.4641C3.01434 12.3308 3.66785 12.9843 4.5345 13.0987C5.49747 13.2259 6.69721 13.3333 7.9987 13.3333C9.30019 13.3333 10.4999 13.2259 11.4629 13.0987C12.3295 12.9843 12.9831 12.3308 13.0975 11.4641C13.2247 10.5011 13.332 9.30141 13.332 7.99992C13.332 6.69843 13.2247 5.49869 13.0975 4.53572C12.9831 3.66907 12.3295 3.01556 11.4629 2.9011C10.4999 2.77392 9.30019 2.66659 7.9987 2.66659ZM4.35992 1.57925C2.89539 1.77267 1.77145 2.89661 1.57803 4.36114C1.44505 5.36797 1.33203 6.62743 1.33203 7.99992C1.33203 9.3724 1.44505 10.6319 1.57803 11.6387C1.77145 13.1032 2.89539 14.2272 4.35992 14.4206C5.36675 14.5536 6.62621 14.6666 7.9987 14.6666C9.37118 14.6666 10.6306 14.5536 11.6375 14.4206C13.102 14.2272 14.2259 13.1032 14.4194 11.6387C14.5523 10.6319 14.6654 9.3724 14.6654 7.99992C14.6654 6.62743 14.5523 5.36797 14.4194 4.36115C14.2259 2.89661 13.102 1.77267 11.6375 1.57925C10.6306 1.44627 9.37118 1.33325 7.9987 1.33325C6.62621 1.33325 5.36675 1.44627 4.35992 1.57925Z" fill="#FCFCFD"/>
<path d="M6.00041 7.33341C6.73679 7.33341 7.33374 6.73646 7.33374 6.00008C7.33374 5.2637 6.73679 4.66675 6.00041 4.66675C5.26403 4.66675 4.66707 5.2637 4.66707 6.00008C4.66707 6.73646 5.26403 7.33341 6.00041 7.33341Z" fill="#FCFCFD"/>
<path d="M12.0813 8.47161L13.2775 9.66782C13.2362 10.292 13.176 10.8711 13.1095 11.3855L11.1385 9.41442C10.8781 9.15407 10.456 9.15407 10.1957 9.41442L8.74795 10.8621C7.9669 11.6432 6.70057 11.6432 5.91952 10.8621L5.80514 10.7478C5.54479 10.4874 5.12268 10.4874 4.86233 10.7478L3.25629 12.3538C3.07024 12.1015 2.94576 11.7988 2.90158 11.4643C2.87749 11.2819 2.8541 11.0909 2.83203 10.8924L3.91953 9.80494C4.70057 9.02389 5.9669 9.0239 6.74795 9.80494L6.86233 9.91933C7.12268 10.1797 7.54479 10.1797 7.80514 9.91933L9.25286 8.47161C10.0339 7.69056 11.3002 7.69056 12.0813 8.47161Z" fill="#FCFCFD"/>
</svg>
