<svg width="172" height="208" viewBox="0 0 172 208" fill="none" xmlns="http://www.w3.org/2000/svg">
<rect width="172" height="208" rx="18" fill="#F4F5F6"/>
<g clip-path="url(#clip0)">
<path d="M125.463 76.0859C125.463 97.7695 103.069 126.824 86.5616 126.824C70.0537 126.824 47.6602 97.7695 47.6602 76.0859C47.6602 54.4023 65.077 36.8242 86.5616 36.8242C108.046 36.8242 125.463 54.4023 125.463 76.0859Z" fill="#B1EF97"/>
<path d="M86.0221 36.8276C64.7892 37.1229 47.6602 54.5864 47.6602 76.0859C47.6602 97.6933 69.8965 126.62 86.3874 126.823C84.6886 105.988 75.8366 92.4301 71.2212 65.94C68.4318 49.9302 77.0232 41.3671 86.0221 36.8276Z" fill="#92DD7A"/>
<path d="M109.703 94.0754C115.391 88.3357 117.172 80.8272 113.683 77.3054C110.194 73.7829 102.754 75.5813 97.0663 81.3216C91.3786 87.062 89.5968 94.5704 93.0863 98.0923C96.5764 101.614 104.015 99.8157 109.703 94.0754Z" fill="#898890"/>
<path d="M63.4191 94.0768C69.1068 99.8171 76.5464 101.615 80.0359 98.093C83.5254 94.5712 81.7435 87.0627 76.0565 81.323C70.3689 75.5827 62.9293 73.7844 59.4398 77.3062C55.9503 80.828 57.7321 88.3364 63.4191 94.0768Z" fill="#898890"/>
<path d="M86.5613 107.654C84.8196 107.654 83.0779 107.085 81.6247 105.947C81.0369 105.487 80.9307 104.634 81.3859 104.041C81.841 103.449 82.6867 103.341 83.2738 103.8C85.2094 105.316 87.9124 105.316 89.848 103.8C90.4351 103.341 91.2808 103.449 91.736 104.041C92.1918 104.634 92.085 105.487 91.4978 105.947C90.0446 107.085 88.3029 107.654 86.5613 107.654Z" fill="#898890"/>
<path d="M59.4398 77.3059C55.9503 80.8277 57.7321 88.3362 63.4191 94.0766C66.7433 97.4308 70.6641 99.4386 74.0461 99.8259C73.6624 99.7441 68.0428 98.3969 66.4725 89.6305C64.8662 80.6588 76.0565 81.3221 76.0565 81.3221C70.3689 75.5825 62.9293 73.7841 59.4398 77.3059Z" fill="#75747A"/>
<path d="M113.683 77.3059C117.173 80.8277 115.391 88.3362 109.703 94.0766C106.38 97.4308 102.46 99.4386 99.0768 99.8259C99.4605 99.7441 105.08 98.3969 106.65 89.6305C108.257 80.6588 97.0664 81.3221 97.0664 81.3221C102.754 75.5825 110.194 73.7841 113.683 77.3059Z" fill="#75747A"/>
</g>
<rect x="22" y="155" width="91" height="14" rx="7" fill="#C4C4C4"/>
<rect x="125" y="12" width="33" height="14" rx="7" fill="#C4C4C4"/>
<rect x="22" y="176" width="124" height="14" rx="7" fill="#C4C4C4"/>
<defs>
<clipPath id="clip0">
<rect width="89" height="90" fill="white" transform="translate(42 37)"/>
</clipPath>
</defs>
</svg>
