<svg width="186" height="222" viewBox="0 0 186 222" fill="none" xmlns="http://www.w3.org/2000/svg">
<rect opacity="0.4" x="22" y="24" width="164" height="198" rx="18" fill="#B1B5C4"/>
<rect x="15" y="17" width="164" height="198" rx="18" fill="#B1B5C4"/>
<rect width="172" height="208" rx="18" fill="#F4F5F6"/>
<path d="M86.5011 55.4975C86.4137 55.4975 86.3249 55.4895 86.2359 55.473C85.4549 55.3273 84.9396 54.5762 85.0851 53.795C85.1541 53.4244 86.8658 44.6913 94.6055 42.1877C95.3615 41.9431 96.1725 42.3577 96.4169 43.1135C96.6615 43.8695 96.2469 44.6804 95.4911 44.9251C89.3625 46.9076 87.9276 54.2482 87.9138 54.3222C87.7848 55.0141 87.1804 55.4975 86.5011 55.4975Z" fill="#3A5D74"/>
<path d="M119.178 88.1005C117.364 86.9718 114.978 87.5279 113.85 89.342C112.722 91.1557 113.278 93.541 115.092 94.6691C119.027 97.1173 121.377 101.341 121.377 105.969C121.377 113.3 115.413 119.264 108.082 119.264H105.17V83.1342V78.5309V72.7289C105.17 62.418 96.8115 54.0586 86.4997 54.0586C76.1874 54.0586 67.8292 62.418 67.8292 72.7289V119.264H64.9176C57.5866 119.264 51.6224 113.3 51.6224 105.969C51.6224 101.341 53.9719 97.1171 57.9077 94.6691C59.7217 93.541 60.2771 91.1557 59.1493 89.342C58.0208 87.5279 55.6359 86.972 53.8217 88.1005C47.6007 91.9701 43.8867 98.6501 43.8867 105.969C43.8867 117.565 53.3212 127 64.9176 127H71.5424H74.3728H98.6265H101.457H108.082C119.678 127 129.113 117.566 129.113 105.969C129.113 98.6499 125.399 91.9701 119.178 88.1005Z" fill="#B1EF97"/>
<path d="M86.5006 84.216C91.8792 84.216 96.2395 79.8558 96.2395 74.4772C96.2395 69.0985 91.8792 64.7383 86.5006 64.7383C81.122 64.7383 76.7617 69.0985 76.7617 74.4772C76.7617 79.8558 81.122 84.216 86.5006 84.216Z" fill="#FFD960"/>
<path d="M93.8821 94.2034C93.6021 93.7529 93.1093 93.4788 92.5786 93.4788H80.4214C79.8907 93.4788 79.3979 93.7529 79.1179 94.2036C78.8378 94.6544 78.8104 95.2176 79.0457 95.6933C80.5718 98.7812 83.4281 100.699 86.4998 100.699C89.5719 100.699 92.428 98.7808 93.9541 95.6933C94.1891 95.2176 94.162 94.6542 93.8821 94.2034Z" fill="#3A5D74"/>
<path d="M99.5511 47.0051C102.038 47.0051 104.053 44.9894 104.053 42.5028C104.053 40.0162 102.038 38.0005 99.5511 38.0005C97.0646 38.0005 95.0488 40.0162 95.0488 42.5028C95.0488 44.9894 97.0646 47.0051 99.5511 47.0051Z" fill="#B1EF97"/>
<path opacity="0.1" d="M86.5006 54.0583C76.1882 54.0583 67.8301 62.4177 67.8301 72.7287V119.261C67.8614 119.262 67.892 119.264 67.9231 119.264H68.5031C69.3888 119.182 70.8342 118.716 70.8342 116.542V72.7288C70.8342 62.9236 78.3927 54.8839 88.0026 54.1187C87.5072 54.0794 87.0062 54.0583 86.5006 54.0583Z" fill="#231F20"/>
<path opacity="0.1" d="M79.766 74.477C79.766 69.6093 83.3374 65.5761 88.0026 64.8537C87.513 64.7779 87.0113 64.7383 86.5006 64.7383C81.122 64.7383 76.7617 69.0984 76.7617 74.477C76.7617 79.8557 81.122 84.2162 86.5006 84.2162C87.0115 84.2162 87.513 84.1766 88.0026 84.1006C83.3373 83.378 79.766 79.3448 79.766 74.477Z" fill="#231F20"/>
<path opacity="0.1" d="M82.05 95.6928C81.815 95.2172 81.8423 94.654 82.1223 94.2031C82.4022 93.7524 82.8951 93.4783 83.4257 93.4783H80.4214C79.8907 93.4783 79.3979 93.7524 79.1179 94.2031C78.8378 94.6539 78.8104 95.2171 79.0457 95.6928C80.5718 98.7807 83.4281 100.699 86.4998 100.699C87.0081 100.699 87.5106 100.645 88.002 100.543C85.5238 100.031 83.3238 98.2697 82.05 95.6928Z" fill="#231F20"/>
<path opacity="0.1" d="M98.0533 42.5027C98.0533 40.5429 99.3053 38.8764 101.053 38.2578C100.583 38.0914 100.078 38 99.5506 38C97.0645 38 95.0488 40.0159 95.0488 42.5027C95.0488 44.9889 97.0645 47.0051 99.5506 47.0051C100.077 47.0051 100.583 46.9137 101.053 46.7474C99.3053 46.1287 98.0533 44.4622 98.0533 42.5027Z" fill="#231F20"/>
<path d="M86.5009 77.2261C88.019 77.2261 89.2498 75.9954 89.2498 74.4772C89.2498 72.959 88.019 71.7283 86.5009 71.7283C84.9827 71.7283 83.752 72.959 83.752 74.4772C83.752 75.9954 84.9827 77.2261 86.5009 77.2261Z" fill="#3A5D74"/>
<rect x="22" y="155" width="91" height="14" rx="7" fill="#C4C4C4"/>
<rect x="125" y="12" width="33" height="14" rx="7" fill="#C4C4C4"/>
<rect x="22" y="176" width="124" height="14" rx="7" fill="#C4C4C4"/>
</svg>
