<svg width="19" height="17" viewBox="0 0 19 17" fill="none" xmlns="http://www.w3.org/2000/svg">
<g clip-path="url(#clip0)">
<path d="M4.31389 10.4704C3.51322 10.4704 2.72399 10.4818 1.92332 10.4818C1.83181 10.4818 1.74031 10.4818 1.68311 10.3787C1.48867 10.0351 1.28278 9.69139 1.13408 9.31335C0.848129 8.59163 0.973949 7.90428 1.33997 7.26275C2.35797 5.46418 3.39884 3.68852 4.41683 1.9014C5.02306 0.847461 5.93811 0.366314 7.12768 0.354858C9.06073 0.354858 11.0052 0.354858 12.9383 0.354858C14.0478 0.354858 14.9399 0.76727 15.489 1.76393C15.5919 1.95868 15.7292 2.01596 15.9465 2.01596C16.5527 2.0045 17.1589 2.01596 17.7652 2.0045C17.9711 2.0045 18.0511 2.02742 17.9139 2.25653C17.5936 2.7835 17.2848 3.32193 16.9874 3.86035C16.8844 4.04365 16.77 4.10093 16.5642 4.10093C14.1621 4.08947 11.7601 4.08947 9.35812 4.10093C8.94634 4.10093 8.53457 4.11238 8.15711 4.30713C7.69958 4.53625 7.41363 4.91429 7.2535 5.39544C7.17042 5.50407 7.21316 5.47524 7.17042 5.50407C6.57563 6.5351 6.06378 7.6562 5.48043 8.68723C5.13728 9.30584 4.61128 9.81741 4.31389 10.4704Z" fill="#3B457A"/>
<path d="M13.5554 16.6107C13.5211 16.6221 13.4868 16.6221 13.4411 16.6336C13.4056 16.6336 13.4129 16.6336 13.3839 16.6336C12.2401 16.6336 11.1077 16.6336 9.96387 16.6336C9.97531 16.5878 9.96387 16.5305 9.98674 16.4961C10.5701 15.4766 11.1534 14.4799 11.7253 13.4718C11.9084 13.151 12.1486 12.8532 12.2401 12.4751C12.2629 12.4522 12.2744 12.4293 12.2972 12.4064C12.9263 11.6274 12.8577 10.8255 12.3773 10.0007C11.9655 9.30184 11.5652 8.60304 11.1763 7.90423C10.7417 7.14814 11.0734 6.54098 11.9427 6.54098C13.9672 6.52952 15.9918 6.54098 18.0163 6.54098C18.1879 6.54098 18.3023 6.5868 18.3823 6.74719C18.4624 6.91902 18.5654 7.07941 18.6569 7.25124C19.1258 8.11043 19.1258 8.96962 18.634 9.82881C17.5931 11.6503 16.5522 13.4718 15.4885 15.2818C15.1225 15.9119 14.5963 16.393 13.8414 16.542C13.817 16.5468 13.8109 16.5496 13.7956 16.5534C13.7499 16.5649 13.7156 16.5763 13.6698 16.5878C13.6002 16.6052 13.6167 16.5902 13.5554 16.6107Z" fill="#3B457A"/>
<path fill-rule="evenodd" clip-rule="evenodd" d="M5.03102 9.18317C4.77882 9.6055 4.52711 10.027 4.31365 10.4705C5.5721 10.4705 6.84178 10.4817 8.12271 10.4931L8.15686 10.4934C8.46569 10.4934 8.77452 10.4017 8.91178 10.1382C9.06048 9.82893 9.04904 9.49671 8.85459 9.16449C8.57831 8.71484 8.31872 8.26102 8.05818 7.80555C7.88726 7.50673 7.71592 7.20721 7.5392 6.90768C7.26469 6.42654 7.23037 5.92248 7.26469 5.39551C7.20888 5.40482 7.18333 5.45201 7.15728 5.50012C7.15129 5.51117 7.14528 5.52228 7.13887 5.53298C6.54409 6.55255 5.9493 7.58358 5.36596 8.61461C5.25646 8.80564 5.14369 8.99448 5.03102 9.18317ZM11.8788 13.2203C12.0251 12.988 12.1729 12.7533 12.2402 12.4752C11.7941 12.8304 11.2794 12.922 10.7075 12.9335C8.27113 12.9335 5.82336 12.9335 3.38704 12.922C3.20403 12.922 3.10109 12.9793 3.00958 13.1397C2.68931 13.701 2.36904 14.2509 2.03734 14.8122C1.93439 14.9841 1.98015 15.0414 2.1746 15.0414C2.34167 15.0414 2.5078 15.0432 2.67354 15.0451C3.08647 15.0498 3.49692 15.0544 3.91319 15.0299C4.2449 15.0184 4.42791 15.1215 4.58804 15.4079C4.99982 16.1067 5.5946 16.5994 6.40671 16.6337C7.19171 16.6643 7.98178 16.6541 8.77356 16.6439C9.17008 16.6388 9.56702 16.6337 9.96397 16.6337C9.96397 16.5879 9.96397 16.5306 9.98685 16.4962L9.98693 16.4961C10.5702 15.488 11.1536 14.48 11.7254 13.4719C11.7738 13.3871 11.8262 13.3038 11.8788 13.2203Z" fill="#363F89"/>
</g>
<defs>
<clipPath id="clip0">
<rect width="18.0265" height="16.2902" fill="white" transform="translate(0.973633 0.354858)"/>
</clipPath>
</defs>
</svg>
